<svg xmlns="http://www.w3.org/2000/svg" width="443.789" height="55.535" viewBox="0 0 443.789 55.535">
  <g id="Group_52" data-name="Group 52" transform="translate(-280.935 -496.871)">
    <path id="Path_35" data-name="Path 35" d="M303.1,524.621a5.523,5.523,0,0,0,5.544,5.542h22.169a5.519,5.519,0,0,0,5.544-5.542V502.451a5.519,5.519,0,0,0-5.544-5.544H286.477a5.519,5.519,0,0,0-5.542,5.544v44.341a5.543,5.543,0,1,0,11.086,0v-38.8h33.255v11.086H308.649a5.523,5.523,0,0,0-5.544,5.542Z" transform="translate(0 0.056)" fill="#14213d" fill-rule="evenodd"/>
    <path id="Path_36" data-name="Path 36" d="M365,542.727l-12.562-12.565H361.3a5.519,5.519,0,0,0,5.542-5.542V502.451a5.519,5.519,0,0,0-5.542-5.544H316.962a5.519,5.519,0,0,0-5.544,5.544v44.341a5.543,5.543,0,1,0,11.086,0v-38.8h33.258v11.086h-16.63a5.306,5.306,0,0,0-4.157,1.894,5.2,5.2,0,0,0-1.293,4.386,5.888,5.888,0,0,0,1.756,3.327l21.8,21.8a5.327,5.327,0,0,0,4.249,1.846q4.991-.367,5.358-5.359A5.321,5.321,0,0,0,365,542.727Z" transform="translate(47.114 0.056)" fill="#14213d" fill-rule="evenodd"/>
    <path id="Path_37" data-name="Path 37" d="M347.48,496.907a5.519,5.519,0,0,0-5.542,5.544v44.341a5.519,5.519,0,0,0,5.542,5.542h44.344a5.543,5.543,0,1,0,0-11.086h-38.8V507.993h38.8a5.543,5.543,0,1,0,0-11.086Zm16.63,27.714a5.519,5.519,0,0,0,5.542,5.542h22.172a5.542,5.542,0,1,0,0-11.084H369.652a5.519,5.519,0,0,0-5.542,5.542Z" transform="translate(94.285 0.056)" fill="#14213d" fill-rule="evenodd"/>
    <path id="Path_38" data-name="Path 38" d="M422.028,552.334a5.642,5.642,0,0,0,4.343-1.8,5.47,5.47,0,0,0,1.385-4.483A5.53,5.53,0,0,0,426,542.727l-18.107-18.107L426,506.517a5.743,5.743,0,0,0,1.848-3.327,5.134,5.134,0,0,0-1.342-4.343,5.381,5.381,0,0,0-4.2-1.94H377.964a5.519,5.519,0,0,0-5.542,5.544v44.341a5.519,5.519,0,0,0,5.542,5.542Zm-38.52-44.342H409l-11.083,11.086h-3.327a5.542,5.542,0,1,0,0,11.084h3.327L409,541.248H383.508Z" transform="translate(141.4 0.056)" fill="#14213d" fill-rule="evenodd"/>
    <path id="Path_39" data-name="Path 39" d="M456.523,542.727l-12.565-12.565h8.869a5.519,5.519,0,0,0,5.542-5.542V502.451a5.519,5.519,0,0,0-5.542-5.544H408.485a5.519,5.519,0,0,0-5.544,5.544v44.341a5.543,5.543,0,1,0,11.086,0v-38.8h33.258v11.086h-16.63a5.306,5.306,0,0,0-4.157,1.894,5.209,5.209,0,0,0-1.293,4.386,5.887,5.887,0,0,0,1.756,3.327l21.8,21.8a5.326,5.326,0,0,0,4.248,1.846q4.991-.367,5.359-5.359A5.326,5.326,0,0,0,456.523,542.727Z" transform="translate(188.57 0.056)" fill="#14213d" fill-rule="evenodd"/>
    <path id="Path_40" data-name="Path 40" d="M488.927,502.413a5.524,5.524,0,0,0-5.544-5.542H472.388a6.09,6.09,0,0,0-3.416,1.107l-32.795,21.8a5.542,5.542,0,0,0-2.68,4.9v22.08a5.519,5.519,0,0,0,5.544,5.542h44.341a5.523,5.523,0,0,0,5.544-5.542V502.413Zm-11.086,38.8H444.583V527.54l29.376-19.583h3.882Z" transform="translate(235.797 0)" fill="#14213d" fill-rule="evenodd"/>
  </g>
</svg>
