<svg xmlns="http://www.w3.org/2000/svg" width="130.5" height="41.5" viewBox="0 0 130.5 41.5">
  <g id="Group_2" data-name="Group 2" transform="translate(-275.25 -786.25)">
    <path id="Rectangle" d="M4,0H125a4,4,0,0,1,4,4V36a4,4,0,0,1-4,4H4a4,4,0,0,1-4-4V4A4,4,0,0,1,4,0Z" transform="translate(276 787)" fill="none" stroke="#1298f6" stroke-width="1.5"/>
    <path id="facebook" d="M16,3.985h2.191V.169A28.292,28.292,0,0,0,15,0C11.837,0,9.673,1.987,9.673,5.639V9H6.187v4.266H9.673V24h4.274V13.267h3.345L17.823,9H13.946V6.062c0-1.233.333-2.077,2.051-2.077Z" transform="translate(327.813 795)" fill="#1298f6"/>
  </g>
</svg>
