<svg xmlns="http://www.w3.org/2000/svg" xmlns:xlink="http://www.w3.org/1999/xlink" width="152" height="152" viewBox="0 0 152 152">
  <defs>
    <filter id="Ellipse_19" x="0" y="0" width="152" height="152" filterUnits="userSpaceOnUse">
      <feOffset dy="3" input="SourceAlpha"/>
      <feGaussianBlur stdDeviation="3" result="blur"/>
      <feFlood flood-color="#fca311"/>
      <feComposite operator="in" in2="blur"/>
      <feComposite in="SourceGraphic"/>
    </filter>
  </defs>
  <g id="Group_65" data-name="Group 65" transform="translate(-1578 -1129)">
    <g id="Group_34" data-name="Group 34" transform="translate(1379 238)">
      <g transform="matrix(1, 0, 0, 1, 199, 891)" filter="url(#Ellipse_19)">
        <g id="Ellipse_19-2" data-name="Ellipse 19" transform="translate(9 6)" fill="none" stroke="#fca311" stroke-width="1">
          <circle cx="67" cy="67" r="67" stroke="none"/>
          <circle cx="67" cy="67" r="66.5" fill="none"/>
        </g>
      </g>
    </g>
    <g id="dollar-symbol" transform="translate(1520.357 1172)">
      <path id="Path_28" data-name="Path 28" d="M142.462,29.447a78.047,78.047,0,0,0-7.926-3.588,17.794,17.794,0,0,1-4.351-2.437c-2.584-2.062-2.089-5.409.937-6.734a7.638,7.638,0,0,1,2.664-.549A20.223,20.223,0,0,1,143.8,18.12c1.58.763,2.1.522,2.638-1.125.562-1.741,1.031-3.508,1.553-5.262a1.838,1.838,0,0,0-1.192-2.45A25.458,25.458,0,0,0,140.481,7.4c-2.865-.442-2.865-.455-2.879-3.334-.013-4.057-.013-4.057-4.084-4.057-.589,0-1.178-.013-1.767,0-1.9.054-2.222.388-2.276,2.3-.027.857,0,1.714-.013,2.584-.013,2.544-.027,2.5-2.463,3.387-5.891,2.142-9.533,6.159-9.921,12.585-.348,5.69,2.624,9.533,7.3,12.331,2.879,1.727,6.065,2.745,9.118,4.1a13.543,13.543,0,0,1,3.32,1.955,4.552,4.552,0,0,1-1.084,7.98,10.92,10.92,0,0,1-5.851.763,26.114,26.114,0,0,1-8.917-2.664c-1.647-.857-2.129-.629-2.691,1.151-.482,1.54-.91,3.093-1.339,4.646-.576,2.089-.361,2.584,1.633,3.561a28.471,28.471,0,0,0,8.033,2.3c2.169.348,2.236.442,2.263,2.691.013,1.018.013,2.048.027,3.066a1.821,1.821,0,0,0,1.955,2.062c1.5.027,3.012.027,4.512-.013a1.716,1.716,0,0,0,1.861-1.941c0-1.392.067-2.8.013-4.191a2.213,2.213,0,0,1,1.915-2.517,15.131,15.131,0,0,0,7.886-5.061C152.758,44.12,150.575,33.932,142.462,29.447Z" transform="translate(0 0)" fill="#fca311"/>
    </g>
  </g>
</svg>
