<svg xmlns="http://www.w3.org/2000/svg" xmlns:xlink="http://www.w3.org/1999/xlink" width="152" height="152" viewBox="0 0 152 152">
  <defs>
    <filter id="Ellipse_19" x="0" y="0" width="152" height="152" filterUnits="userSpaceOnUse">
      <feOffset dy="3" input="SourceAlpha"/>
      <feGaussianBlur stdDeviation="3" result="blur"/>
      <feFlood flood-color="#fca311"/>
      <feComposite operator="in" in2="blur"/>
      <feComposite in="SourceGraphic"/>
    </filter>
  </defs>
  <g id="Group_40" data-name="Group 40" transform="translate(-536 -970)">
    <g id="Group_34" data-name="Group 34" transform="translate(337 79)">
      <g transform="matrix(1, 0, 0, 1, 199, 891)" filter="url(#Ellipse_19)">
        <g id="Ellipse_19-2" data-name="Ellipse 19" transform="translate(9 6)" fill="none" stroke="#fca311" stroke-width="1">
          <circle cx="67" cy="67" r="67" stroke="none"/>
          <circle cx="67" cy="67" r="66.5" fill="none"/>
        </g>
      </g>
    </g>
    <g id="factory" transform="translate(581 1001.112)">
      <path id="Path_27" data-name="Path 27" d="M36.507,15.35a3.145,3.145,0,0,1-.357-.7l.129-.118.688.283c.206.082.459.183.749.3a8.782,8.782,0,0,0,.929.3,2.75,2.75,0,0,0,.5.121c.087.011.17.035.256.051s.171.009.256.019a5.268,5.268,0,0,0,1.006-.009c.161-.059.339-.076.514-.151a3.945,3.945,0,0,0,.518-.271c.079-.054.161-.11.248-.166a.98.98,0,0,0,.285-.2l.612-.514c.006-.008-.036.053-.016.024l0,0,.01-.009.02-.017.04-.036.081-.072.161-.141.3-.287c.191-.2.43-.349.623-.539s.444-.316.646-.506c.216-.171.469-.3.713-.464a3.063,3.063,0,0,1,1.648-.345c.134.014.265.035.394.059s.241.077.357.121a3.39,3.39,0,0,1,.633.3,4.359,4.359,0,0,1,.933.727,4.172,4.172,0,0,1,.556.7,3.305,3.305,0,0,1,.273.515c.046.129.071.2.071.2l-.129.12s-.276-.093-.7-.27c-.206-.082-.457-.185-.744-.3s-.582-.24-.9-.349a4.486,4.486,0,0,0-.494-.161c-.085-.021-.169-.054-.254-.079a2.243,2.243,0,0,1-.256-.067,5.319,5.319,0,0,0-1.146-.27,2.5,2.5,0,0,0-.657.106,1.86,1.86,0,0,0-.6.366,2.573,2.573,0,0,0-.468.557l-.168.336-.077.169-.037.084-.018.043-.009.019,0,.01,0,.006c.017-.025-.026.039-.023.035l-.33.728a3.734,3.734,0,0,1-.56.733,4.394,4.394,0,0,1-.727.6,5.224,5.224,0,0,1-.858.415,3.432,3.432,0,0,1-1.787.062,3.051,3.051,0,0,1-.749-.256,4.345,4.345,0,0,1-.623-.339,4.831,4.831,0,0,1-.91-.771A4.413,4.413,0,0,1,36.507,15.35Zm26.382,41.3V71.639H0V56.647H4.284V39.806l12.072-8.47v8.47l12.07-8.47v8.47L40.5,31.336V47.984h4.165l2.262-29.449h6.9l1.98,29.449h4.645v8.665h2.434ZM19.714,50.173H10.223v8.762h9.491Zm16.354,0H26.577v8.762h9.491Zm16.56,0H43.137v8.762h9.491Z" fill="#fca311"/>
    </g>
  </g>
</svg>
