<svg xmlns="http://www.w3.org/2000/svg" width="820" height="800" viewBox="0 0 820 800">
  <g id="Group_1" data-name="Group 1" transform="translate(-960 -140)">
    <path id="Rectangle" d="M0,0H820V800H0Z" transform="translate(960 140)" fill="rgba(252,163,17,0.36)"/>
    <g id="Group" transform="translate(1494 442)" opacity="0.5">
      <path id="Path" d="M1.42,2.85A1.425,1.425,0,1,0,0,1.425,1.427,1.427,0,0,0,1.42,2.85Z" transform="translate(0.22 0.833)" fill="#90dadd" opacity="0.5"/>
      <path id="Path-2" data-name="Path" d="M1.43,2.85A1.425,1.425,0,1,0,0,1.425,1.419,1.419,0,0,0,1.43,2.85Z" transform="translate(14.16 0.833)" fill="#90dadd" opacity="0.5"/>
      <path id="Path-3" data-name="Path" d="M1.43,2.85A1.425,1.425,0,1,0,0,1.425,1.425,1.425,0,0,0,1.43,2.85Z" transform="translate(28.11 0.833)" fill="#90dadd" opacity="0.5"/>
      <path id="Path-4" data-name="Path" d="M1.42,2.85A1.425,1.425,0,1,0,0,1.425,1.427,1.427,0,0,0,1.42,2.85Z" transform="translate(42.16 0.833)" fill="#90dadd" opacity="0.5"/>
      <path id="Path-5" data-name="Path" d="M1.42,2.85A1.425,1.425,0,1,0,0,1.425,1.427,1.427,0,0,0,1.42,2.85Z" transform="translate(56.11 0.833)" fill="#90dadd" opacity="0.5"/>
      <path id="Path-6" data-name="Path" d="M1.42,2.85A1.425,1.425,0,1,0,0,1.425,1.427,1.427,0,0,0,1.42,2.85Z" transform="translate(70.06 0.833)" fill="#90dadd" opacity="0.5"/>
      <path id="Path-7" data-name="Path" d="M1.43,2.85A1.425,1.425,0,1,0,0,1.425,1.419,1.419,0,0,0,1.43,2.85Z" transform="translate(84 0.833)" fill="#90dadd" opacity="0.5"/>
      <path id="Path-8" data-name="Path" d="M1.43,2.85A1.425,1.425,0,1,0,0,1.425,1.425,1.425,0,0,0,1.43,2.85Z" transform="translate(97.95 0.833)" fill="#90dadd" opacity="0.5"/>
      <path id="Path-9" data-name="Path" d="M1.43,2.85A1.425,1.425,0,1,0,0,1.425,1.425,1.425,0,0,0,1.43,2.85Z" transform="translate(112 0.833)" fill="#90dadd" opacity="0.5"/>
      <path id="Path-10" data-name="Path" d="M1.42,2.85A1.425,1.425,0,1,0,0,1.425,1.427,1.427,0,0,0,1.42,2.85Z" transform="translate(125.95 0.833)" fill="#90dadd" opacity="0.5"/>
      <path id="Path-11" data-name="Path" d="M1.43,2.85A1.425,1.425,0,1,0,0,1.425,1.427,1.427,0,0,0,1.43,2.85Z" transform="translate(139.89 0.833)" fill="#90dadd" opacity="0.5"/>
      <path id="Path-12" data-name="Path" d="M1.42,2.85A1.425,1.425,0,1,0,0,1.425,1.427,1.427,0,0,0,1.42,2.85Z" transform="translate(0.22 13.355)" fill="#90dadd" opacity="0.5"/>
      <path id="Path-13" data-name="Path" d="M1.43,2.85A1.425,1.425,0,1,0,0,1.425,1.419,1.419,0,0,0,1.43,2.85Z" transform="translate(14.16 13.355)" fill="#90dadd" opacity="0.5"/>
      <path id="Path-14" data-name="Path" d="M1.43,2.85A1.425,1.425,0,1,0,0,1.425,1.425,1.425,0,0,0,1.43,2.85Z" transform="translate(28.11 13.355)" fill="#90dadd" opacity="0.5"/>
      <path id="Path-15" data-name="Path" d="M1.42,2.85A1.425,1.425,0,1,0,0,1.425,1.427,1.427,0,0,0,1.42,2.85Z" transform="translate(42.16 13.355)" fill="#90dadd" opacity="0.5"/>
      <path id="Path-16" data-name="Path" d="M1.42,2.85A1.425,1.425,0,1,0,0,1.425,1.427,1.427,0,0,0,1.42,2.85Z" transform="translate(56.11 13.355)" fill="#90dadd" opacity="0.5"/>
      <path id="Path-17" data-name="Path" d="M1.42,2.85A1.425,1.425,0,1,0,0,1.425,1.427,1.427,0,0,0,1.42,2.85Z" transform="translate(70.06 13.355)" fill="#90dadd" opacity="0.5"/>
      <path id="Path-18" data-name="Path" d="M1.43,2.85A1.425,1.425,0,1,0,0,1.425,1.419,1.419,0,0,0,1.43,2.85Z" transform="translate(84 13.355)" fill="#90dadd" opacity="0.5"/>
      <path id="Path-19" data-name="Path" d="M1.43,2.85A1.425,1.425,0,1,0,0,1.425,1.425,1.425,0,0,0,1.43,2.85Z" transform="translate(97.95 13.355)" fill="#90dadd" opacity="0.5"/>
      <path id="Path-20" data-name="Path" d="M1.43,2.85A1.425,1.425,0,1,0,0,1.425,1.425,1.425,0,0,0,1.43,2.85Z" transform="translate(112 13.355)" fill="#90dadd" opacity="0.5"/>
      <path id="Path-21" data-name="Path" d="M1.42,2.85A1.425,1.425,0,1,0,0,1.425,1.427,1.427,0,0,0,1.42,2.85Z" transform="translate(125.95 13.355)" fill="#90dadd" opacity="0.5"/>
      <path id="Path-22" data-name="Path" d="M1.43,2.85A1.425,1.425,0,1,0,0,1.425,1.427,1.427,0,0,0,1.43,2.85Z" transform="translate(139.89 13.355)" fill="#90dadd" opacity="0.5"/>
      <path id="Path-23" data-name="Path" d="M1.42,2.85A1.425,1.425,0,1,0,0,1.425,1.427,1.427,0,0,0,1.42,2.85Z" transform="translate(0.22 25.877)" fill="#90dadd" opacity="0.5"/>
      <path id="Path-24" data-name="Path" d="M1.43,2.85A1.425,1.425,0,1,0,0,1.425,1.419,1.419,0,0,0,1.43,2.85Z" transform="translate(14.16 25.877)" fill="#90dadd" opacity="0.5"/>
      <path id="Path-25" data-name="Path" d="M1.43,2.85A1.425,1.425,0,1,0,0,1.425,1.425,1.425,0,0,0,1.43,2.85Z" transform="translate(28.11 25.877)" fill="#90dadd" opacity="0.5"/>
      <path id="Path-26" data-name="Path" d="M1.42,2.85A1.425,1.425,0,1,0,0,1.425,1.427,1.427,0,0,0,1.42,2.85Z" transform="translate(42.16 25.877)" fill="#90dadd" opacity="0.5"/>
      <path id="Path-27" data-name="Path" d="M1.42,2.85A1.425,1.425,0,1,0,0,1.425,1.427,1.427,0,0,0,1.42,2.85Z" transform="translate(56.11 25.877)" fill="#90dadd" opacity="0.5"/>
      <path id="Path-28" data-name="Path" d="M1.42,2.85A1.425,1.425,0,1,0,0,1.425,1.427,1.427,0,0,0,1.42,2.85Z" transform="translate(70.06 25.877)" fill="#90dadd" opacity="0.5"/>
      <path id="Path-29" data-name="Path" d="M1.43,2.85A1.425,1.425,0,1,0,0,1.425,1.419,1.419,0,0,0,1.43,2.85Z" transform="translate(84 25.877)" fill="#90dadd" opacity="0.5"/>
      <path id="Path-30" data-name="Path" d="M1.43,2.85A1.425,1.425,0,1,0,0,1.425,1.425,1.425,0,0,0,1.43,2.85Z" transform="translate(97.95 25.877)" fill="#90dadd" opacity="0.5"/>
      <path id="Path-31" data-name="Path" d="M1.43,2.85A1.425,1.425,0,1,0,0,1.425,1.425,1.425,0,0,0,1.43,2.85Z" transform="translate(112 25.877)" fill="#90dadd" opacity="0.5"/>
      <path id="Path-32" data-name="Path" d="M1.42,2.85A1.425,1.425,0,1,0,0,1.425,1.427,1.427,0,0,0,1.42,2.85Z" transform="translate(125.95 25.877)" fill="#90dadd" opacity="0.5"/>
      <path id="Path-33" data-name="Path" d="M1.43,2.85A1.425,1.425,0,1,0,0,1.425,1.427,1.427,0,0,0,1.43,2.85Z" transform="translate(139.89 25.877)" fill="#90dadd" opacity="0.5"/>
      <path id="Path-34" data-name="Path" d="M1.42,2.851A1.426,1.426,0,1,0,0,1.426,1.427,1.427,0,0,0,1.42,2.851Z" transform="translate(0.22 38.501)" fill="#90dadd" opacity="0.5"/>
      <path id="Path-35" data-name="Path" d="M1.43,2.851A1.426,1.426,0,1,0,0,1.426,1.419,1.419,0,0,0,1.43,2.851Z" transform="translate(14.16 38.501)" fill="#90dadd" opacity="0.5"/>
      <path id="Path-36" data-name="Path" d="M1.43,2.851A1.426,1.426,0,1,0,0,1.426,1.425,1.425,0,0,0,1.43,2.851Z" transform="translate(28.11 38.501)" fill="#90dadd" opacity="0.5"/>
      <path id="Path-37" data-name="Path" d="M1.42,2.851A1.426,1.426,0,1,0,0,1.426,1.427,1.427,0,0,0,1.42,2.851Z" transform="translate(42.16 38.501)" fill="#90dadd" opacity="0.5"/>
      <path id="Path-38" data-name="Path" d="M1.42,2.851A1.426,1.426,0,1,0,0,1.426,1.427,1.427,0,0,0,1.42,2.851Z" transform="translate(56.11 38.501)" fill="#90dadd" opacity="0.5"/>
      <path id="Path-39" data-name="Path" d="M1.42,2.851A1.426,1.426,0,1,0,0,1.426,1.427,1.427,0,0,0,1.42,2.851Z" transform="translate(70.06 38.501)" fill="#90dadd" opacity="0.5"/>
      <path id="Path-40" data-name="Path" d="M1.43,2.851A1.426,1.426,0,1,0,0,1.426,1.419,1.419,0,0,0,1.43,2.851Z" transform="translate(84 38.501)" fill="#90dadd" opacity="0.5"/>
      <path id="Path-41" data-name="Path" d="M1.43,2.851A1.426,1.426,0,1,0,0,1.426,1.425,1.425,0,0,0,1.43,2.851Z" transform="translate(97.95 38.501)" fill="#90dadd" opacity="0.5"/>
      <path id="Path-42" data-name="Path" d="M1.43,2.851A1.426,1.426,0,1,0,0,1.426,1.425,1.425,0,0,0,1.43,2.851Z" transform="translate(112 38.501)" fill="#90dadd" opacity="0.5"/>
      <path id="Path-43" data-name="Path" d="M1.42,2.851A1.426,1.426,0,1,0,0,1.426,1.427,1.427,0,0,0,1.42,2.851Z" transform="translate(125.95 38.501)" fill="#90dadd" opacity="0.5"/>
      <path id="Path-44" data-name="Path" d="M1.43,2.851A1.426,1.426,0,1,0,0,1.426,1.427,1.427,0,0,0,1.43,2.851Z" transform="translate(139.89 38.501)" fill="#90dadd" opacity="0.5"/>
      <path id="Path-45" data-name="Path" d="M1.42,2.851A1.426,1.426,0,1,0,0,1.426,1.427,1.427,0,0,0,1.42,2.851Z" transform="translate(0.22 51.023)" fill="#90dadd" opacity="0.5"/>
      <path id="Path-46" data-name="Path" d="M1.43,2.851A1.426,1.426,0,1,0,0,1.426,1.419,1.419,0,0,0,1.43,2.851Z" transform="translate(14.16 51.023)" fill="#90dadd" opacity="0.5"/>
      <path id="Path-47" data-name="Path" d="M1.43,2.851A1.426,1.426,0,1,0,0,1.426,1.425,1.425,0,0,0,1.43,2.851Z" transform="translate(28.11 51.023)" fill="#90dadd" opacity="0.5"/>
      <path id="Path-48" data-name="Path" d="M1.42,2.851A1.426,1.426,0,1,0,0,1.426,1.427,1.427,0,0,0,1.42,2.851Z" transform="translate(42.16 51.023)" fill="#90dadd" opacity="0.5"/>
      <path id="Path-49" data-name="Path" d="M1.42,2.851A1.426,1.426,0,1,0,0,1.426,1.427,1.427,0,0,0,1.42,2.851Z" transform="translate(56.11 51.023)" fill="#90dadd" opacity="0.5"/>
      <path id="Path-50" data-name="Path" d="M1.42,2.851A1.426,1.426,0,1,0,0,1.426,1.427,1.427,0,0,0,1.42,2.851Z" transform="translate(70.06 51.023)" fill="#90dadd" opacity="0.5"/>
      <path id="Path-51" data-name="Path" d="M1.43,2.851A1.426,1.426,0,1,0,0,1.426,1.419,1.419,0,0,0,1.43,2.851Z" transform="translate(84 51.023)" fill="#90dadd" opacity="0.5"/>
      <path id="Path-52" data-name="Path" d="M1.43,2.851A1.426,1.426,0,1,0,0,1.426,1.425,1.425,0,0,0,1.43,2.851Z" transform="translate(97.95 51.023)" fill="#90dadd" opacity="0.5"/>
      <path id="Path-53" data-name="Path" d="M1.43,2.851A1.426,1.426,0,1,0,0,1.426,1.425,1.425,0,0,0,1.43,2.851Z" transform="translate(112 51.023)" fill="#90dadd" opacity="0.5"/>
      <path id="Path-54" data-name="Path" d="M1.42,2.851A1.426,1.426,0,1,0,0,1.426,1.427,1.427,0,0,0,1.42,2.851Z" transform="translate(125.95 51.023)" fill="#90dadd" opacity="0.5"/>
      <path id="Path-55" data-name="Path" d="M1.43,2.851A1.426,1.426,0,1,0,0,1.426,1.427,1.427,0,0,0,1.43,2.851Z" transform="translate(139.89 51.023)" fill="#90dadd" opacity="0.5"/>
      <path id="Path-56" data-name="Path" d="M1.42,2.85A1.425,1.425,0,1,0,0,1.425,1.427,1.427,0,0,0,1.42,2.85Z" transform="translate(0.22 63.546)" fill="#90dadd" opacity="0.5"/>
      <path id="Path-57" data-name="Path" d="M1.43,2.85A1.425,1.425,0,1,0,0,1.425,1.419,1.419,0,0,0,1.43,2.85Z" transform="translate(14.16 63.546)" fill="#90dadd" opacity="0.5"/>
      <path id="Path-58" data-name="Path" d="M1.43,2.85A1.425,1.425,0,1,0,0,1.425,1.425,1.425,0,0,0,1.43,2.85Z" transform="translate(28.11 63.546)" fill="#90dadd" opacity="0.5"/>
      <path id="Path-59" data-name="Path" d="M1.42,2.85A1.425,1.425,0,1,0,0,1.425,1.427,1.427,0,0,0,1.42,2.85Z" transform="translate(42.16 63.546)" fill="#90dadd" opacity="0.5"/>
      <path id="Path-60" data-name="Path" d="M1.42,2.85A1.425,1.425,0,1,0,0,1.425,1.427,1.427,0,0,0,1.42,2.85Z" transform="translate(56.11 63.546)" fill="#90dadd" opacity="0.5"/>
      <path id="Path-61" data-name="Path" d="M1.42,2.85A1.425,1.425,0,1,0,0,1.425,1.427,1.427,0,0,0,1.42,2.85Z" transform="translate(70.06 63.546)" fill="#90dadd" opacity="0.5"/>
      <path id="Path-62" data-name="Path" d="M1.43,2.85A1.425,1.425,0,1,0,0,1.425,1.419,1.419,0,0,0,1.43,2.85Z" transform="translate(84 63.546)" fill="#90dadd" opacity="0.5"/>
      <path id="Path-63" data-name="Path" d="M1.43,2.85A1.425,1.425,0,1,0,0,1.425,1.425,1.425,0,0,0,1.43,2.85Z" transform="translate(97.95 63.546)" fill="#90dadd" opacity="0.5"/>
      <path id="Path-64" data-name="Path" d="M1.43,2.85A1.425,1.425,0,1,0,0,1.425,1.425,1.425,0,0,0,1.43,2.85Z" transform="translate(112 63.546)" fill="#90dadd" opacity="0.5"/>
      <path id="Path-65" data-name="Path" d="M1.42,2.85A1.425,1.425,0,1,0,0,1.425,1.427,1.427,0,0,0,1.42,2.85Z" transform="translate(125.95 63.546)" fill="#90dadd" opacity="0.5"/>
      <path id="Path-66" data-name="Path" d="M1.43,2.85A1.425,1.425,0,1,0,0,1.425,1.427,1.427,0,0,0,1.43,2.85Z" transform="translate(139.89 63.546)" fill="#90dadd" opacity="0.5"/>
      <path id="Path-67" data-name="Path" d="M1.42,2.85A1.425,1.425,0,1,0,0,1.425,1.427,1.427,0,0,0,1.42,2.85Z" transform="translate(0.22 76.069)" fill="#90dadd" opacity="0.5"/>
      <path id="Path-68" data-name="Path" d="M1.43,2.85A1.425,1.425,0,1,0,0,1.425,1.419,1.419,0,0,0,1.43,2.85Z" transform="translate(14.16 76.069)" fill="#90dadd" opacity="0.5"/>
      <path id="Path-69" data-name="Path" d="M1.43,2.85A1.425,1.425,0,1,0,0,1.425,1.425,1.425,0,0,0,1.43,2.85Z" transform="translate(28.11 76.069)" fill="#90dadd" opacity="0.5"/>
      <path id="Path-70" data-name="Path" d="M1.42,2.85A1.425,1.425,0,1,0,0,1.425,1.427,1.427,0,0,0,1.42,2.85Z" transform="translate(42.16 76.069)" fill="#90dadd" opacity="0.5"/>
      <path id="Path-71" data-name="Path" d="M1.42,2.85A1.425,1.425,0,1,0,0,1.425,1.427,1.427,0,0,0,1.42,2.85Z" transform="translate(56.11 76.069)" fill="#90dadd" opacity="0.5"/>
      <path id="Path-72" data-name="Path" d="M1.42,2.85A1.425,1.425,0,1,0,0,1.425,1.427,1.427,0,0,0,1.42,2.85Z" transform="translate(70.06 76.069)" fill="#90dadd" opacity="0.5"/>
      <path id="Path-73" data-name="Path" d="M1.43,2.85A1.425,1.425,0,1,0,0,1.425,1.419,1.419,0,0,0,1.43,2.85Z" transform="translate(84 76.069)" fill="#90dadd" opacity="0.5"/>
      <path id="Path-74" data-name="Path" d="M1.43,2.85A1.425,1.425,0,1,0,0,1.425,1.425,1.425,0,0,0,1.43,2.85Z" transform="translate(97.95 76.069)" fill="#90dadd" opacity="0.5"/>
      <path id="Path-75" data-name="Path" d="M1.43,2.85A1.425,1.425,0,1,0,0,1.425,1.425,1.425,0,0,0,1.43,2.85Z" transform="translate(112 76.069)" fill="#90dadd" opacity="0.5"/>
      <path id="Path-76" data-name="Path" d="M1.42,2.85A1.425,1.425,0,1,0,0,1.425,1.427,1.427,0,0,0,1.42,2.85Z" transform="translate(125.95 76.069)" fill="#90dadd" opacity="0.5"/>
      <path id="Path-77" data-name="Path" d="M1.43,2.85A1.425,1.425,0,1,0,0,1.425,1.427,1.427,0,0,0,1.43,2.85Z" transform="translate(139.89 76.069)" fill="#90dadd" opacity="0.5"/>
      <path id="Path-78" data-name="Path" d="M1.42,2.85A1.425,1.425,0,1,0,0,1.425,1.427,1.427,0,0,0,1.42,2.85Z" transform="translate(0.22 88.591)" fill="#90dadd" opacity="0.5"/>
      <path id="Path-79" data-name="Path" d="M1.43,2.85A1.425,1.425,0,1,0,0,1.425,1.419,1.419,0,0,0,1.43,2.85Z" transform="translate(14.16 88.591)" fill="#90dadd" opacity="0.5"/>
      <path id="Path-80" data-name="Path" d="M1.43,2.85A1.425,1.425,0,1,0,0,1.425,1.425,1.425,0,0,0,1.43,2.85Z" transform="translate(28.11 88.591)" fill="#90dadd" opacity="0.5"/>
      <path id="Path-81" data-name="Path" d="M1.42,2.85A1.425,1.425,0,1,0,0,1.425,1.427,1.427,0,0,0,1.42,2.85Z" transform="translate(42.16 88.591)" fill="#90dadd" opacity="0.5"/>
      <path id="Path-82" data-name="Path" d="M1.42,2.85A1.425,1.425,0,1,0,0,1.425,1.427,1.427,0,0,0,1.42,2.85Z" transform="translate(56.11 88.591)" fill="#90dadd" opacity="0.5"/>
      <path id="Path-83" data-name="Path" d="M1.42,2.85A1.425,1.425,0,1,0,0,1.425,1.427,1.427,0,0,0,1.42,2.85Z" transform="translate(70.06 88.591)" fill="#90dadd" opacity="0.5"/>
      <path id="Path-84" data-name="Path" d="M1.43,2.85A1.425,1.425,0,1,0,0,1.425,1.419,1.419,0,0,0,1.43,2.85Z" transform="translate(84 88.591)" fill="#90dadd" opacity="0.5"/>
      <path id="Path-85" data-name="Path" d="M1.43,2.85A1.425,1.425,0,1,0,0,1.425,1.425,1.425,0,0,0,1.43,2.85Z" transform="translate(97.95 88.591)" fill="#90dadd" opacity="0.5"/>
      <path id="Path-86" data-name="Path" d="M1.43,2.85A1.425,1.425,0,1,0,0,1.425,1.425,1.425,0,0,0,1.43,2.85Z" transform="translate(112 88.591)" fill="#90dadd" opacity="0.5"/>
      <path id="Path-87" data-name="Path" d="M1.42,2.85A1.425,1.425,0,1,0,0,1.425,1.427,1.427,0,0,0,1.42,2.85Z" transform="translate(125.95 88.591)" fill="#90dadd" opacity="0.5"/>
      <path id="Path-88" data-name="Path" d="M1.43,2.85A1.425,1.425,0,1,0,0,1.425,1.427,1.427,0,0,0,1.43,2.85Z" transform="translate(139.89 88.591)" fill="#90dadd" opacity="0.5"/>
      <path id="Path-89" data-name="Path" d="M1.42,2.851A1.426,1.426,0,1,0,0,1.425,1.428,1.428,0,0,0,1.42,2.851Z" transform="translate(0.22 101.113)" fill="#90dadd" opacity="0.5"/>
      <path id="Path-90" data-name="Path" d="M1.43,2.851A1.426,1.426,0,1,0,0,1.425,1.42,1.42,0,0,0,1.43,2.851Z" transform="translate(14.16 101.113)" fill="#90dadd" opacity="0.5"/>
      <path id="Path-91" data-name="Path" d="M1.43,2.851A1.426,1.426,0,1,0,0,1.425,1.426,1.426,0,0,0,1.43,2.851Z" transform="translate(28.11 101.113)" fill="#90dadd" opacity="0.5"/>
      <path id="Path-92" data-name="Path" d="M1.42,2.851A1.426,1.426,0,1,0,0,1.425,1.428,1.428,0,0,0,1.42,2.851Z" transform="translate(42.16 101.113)" fill="#90dadd" opacity="0.5"/>
      <path id="Path-93" data-name="Path" d="M1.42,2.851A1.426,1.426,0,1,0,0,1.425,1.428,1.428,0,0,0,1.42,2.851Z" transform="translate(56.11 101.113)" fill="#90dadd" opacity="0.5"/>
      <path id="Path-94" data-name="Path" d="M1.42,2.851A1.426,1.426,0,1,0,0,1.425,1.428,1.428,0,0,0,1.42,2.851Z" transform="translate(70.06 101.113)" fill="#90dadd" opacity="0.5"/>
      <path id="Path-95" data-name="Path" d="M1.43,2.851A1.426,1.426,0,1,0,0,1.425,1.42,1.42,0,0,0,1.43,2.851Z" transform="translate(84 101.113)" fill="#90dadd" opacity="0.5"/>
      <path id="Path-96" data-name="Path" d="M1.43,2.851A1.426,1.426,0,1,0,0,1.425,1.426,1.426,0,0,0,1.43,2.851Z" transform="translate(97.95 101.113)" fill="#90dadd" opacity="0.5"/>
      <path id="Path-97" data-name="Path" d="M1.43,2.851A1.426,1.426,0,1,0,0,1.425,1.426,1.426,0,0,0,1.43,2.851Z" transform="translate(112 101.113)" fill="#90dadd" opacity="0.5"/>
      <path id="Path-98" data-name="Path" d="M1.42,2.851A1.426,1.426,0,1,0,0,1.425,1.428,1.428,0,0,0,1.42,2.851Z" transform="translate(125.95 101.113)" fill="#90dadd" opacity="0.5"/>
      <path id="Path-99" data-name="Path" d="M1.43,2.851A1.426,1.426,0,1,0,0,1.425,1.428,1.428,0,0,0,1.43,2.851Z" transform="translate(139.89 101.113)" fill="#90dadd" opacity="0.5"/>
      <path id="Path-100" data-name="Path" d="M1.42,2.851A1.426,1.426,0,1,0,0,1.425,1.428,1.428,0,0,0,1.42,2.851Z" transform="translate(0.22 113.635)" fill="#90dadd" opacity="0.5"/>
      <path id="Path-101" data-name="Path" d="M1.43,2.851A1.426,1.426,0,1,0,0,1.425,1.419,1.419,0,0,0,1.43,2.851Z" transform="translate(14.16 113.635)" fill="#90dadd" opacity="0.5"/>
      <path id="Path-102" data-name="Path" d="M1.43,2.851A1.426,1.426,0,1,0,0,1.425,1.425,1.425,0,0,0,1.43,2.851Z" transform="translate(28.11 113.635)" fill="#90dadd" opacity="0.5"/>
      <path id="Path-103" data-name="Path" d="M1.42,2.851A1.426,1.426,0,1,0,0,1.425,1.428,1.428,0,0,0,1.42,2.851Z" transform="translate(42.16 113.635)" fill="#90dadd" opacity="0.5"/>
      <path id="Path-104" data-name="Path" d="M1.42,2.851A1.426,1.426,0,1,0,0,1.425,1.428,1.428,0,0,0,1.42,2.851Z" transform="translate(56.11 113.635)" fill="#90dadd" opacity="0.5"/>
      <path id="Path-105" data-name="Path" d="M1.42,2.851A1.426,1.426,0,1,0,0,1.425,1.428,1.428,0,0,0,1.42,2.851Z" transform="translate(70.06 113.635)" fill="#90dadd" opacity="0.5"/>
      <path id="Path-106" data-name="Path" d="M1.43,2.851A1.426,1.426,0,1,0,0,1.425,1.419,1.419,0,0,0,1.43,2.851Z" transform="translate(84 113.635)" fill="#90dadd" opacity="0.5"/>
      <path id="Path-107" data-name="Path" d="M1.43,2.851A1.426,1.426,0,1,0,0,1.425,1.425,1.425,0,0,0,1.43,2.851Z" transform="translate(97.95 113.635)" fill="#90dadd" opacity="0.5"/>
      <path id="Path-108" data-name="Path" d="M1.43,2.851A1.426,1.426,0,1,0,0,1.425,1.425,1.425,0,0,0,1.43,2.851Z" transform="translate(112 113.635)" fill="#90dadd" opacity="0.5"/>
      <path id="Path-109" data-name="Path" d="M1.42,2.851A1.426,1.426,0,1,0,0,1.425,1.428,1.428,0,0,0,1.42,2.851Z" transform="translate(125.95 113.635)" fill="#90dadd" opacity="0.5"/>
      <path id="Path-110" data-name="Path" d="M1.43,2.851A1.426,1.426,0,1,0,0,1.425,1.428,1.428,0,0,0,1.43,2.851Z" transform="translate(139.89 113.635)" fill="#90dadd" opacity="0.5"/>
      <path id="Path-111" data-name="Path" d="M1.42,2.851A1.426,1.426,0,1,0,0,1.425,1.428,1.428,0,0,0,1.42,2.851Z" transform="translate(0.22 126.157)" fill="#90dadd" opacity="0.5"/>
      <path id="Path-112" data-name="Path" d="M1.43,2.851A1.426,1.426,0,1,0,0,1.425,1.419,1.419,0,0,0,1.43,2.851Z" transform="translate(14.16 126.157)" fill="#90dadd" opacity="0.5"/>
      <path id="Path-113" data-name="Path" d="M1.43,2.851A1.426,1.426,0,1,0,0,1.425,1.425,1.425,0,0,0,1.43,2.851Z" transform="translate(28.11 126.157)" fill="#90dadd" opacity="0.5"/>
      <path id="Path-114" data-name="Path" d="M1.42,2.851A1.426,1.426,0,1,0,0,1.425,1.428,1.428,0,0,0,1.42,2.851Z" transform="translate(42.16 126.157)" fill="#90dadd" opacity="0.5"/>
      <path id="Path-115" data-name="Path" d="M1.42,2.851A1.426,1.426,0,1,0,0,1.425,1.428,1.428,0,0,0,1.42,2.851Z" transform="translate(56.11 126.157)" fill="#90dadd" opacity="0.5"/>
      <path id="Path-116" data-name="Path" d="M1.42,2.851A1.426,1.426,0,1,0,0,1.425,1.428,1.428,0,0,0,1.42,2.851Z" transform="translate(70.06 126.157)" fill="#90dadd" opacity="0.5"/>
      <path id="Path-117" data-name="Path" d="M1.43,2.851A1.426,1.426,0,1,0,0,1.425,1.419,1.419,0,0,0,1.43,2.851Z" transform="translate(84 126.157)" fill="#90dadd" opacity="0.5"/>
      <path id="Path-118" data-name="Path" d="M1.43,2.851A1.426,1.426,0,1,0,0,1.425,1.425,1.425,0,0,0,1.43,2.851Z" transform="translate(97.95 126.157)" fill="#90dadd" opacity="0.5"/>
      <path id="Path-119" data-name="Path" d="M1.43,2.851A1.426,1.426,0,1,0,0,1.425,1.425,1.425,0,0,0,1.43,2.851Z" transform="translate(112 126.157)" fill="#90dadd" opacity="0.5"/>
      <path id="Path-120" data-name="Path" d="M1.42,2.851A1.426,1.426,0,1,0,0,1.425,1.428,1.428,0,0,0,1.42,2.851Z" transform="translate(125.95 126.157)" fill="#90dadd" opacity="0.5"/>
      <path id="Path-121" data-name="Path" d="M1.43,2.851A1.426,1.426,0,1,0,0,1.425,1.428,1.428,0,0,0,1.43,2.851Z" transform="translate(139.89 126.157)" fill="#90dadd" opacity="0.5"/>
    </g>
    <g id="Group-2" data-name="Group" transform="translate(1091 481)" opacity="0.5">
      <path id="Path-122" data-name="Path" d="M5.9,0,0,5.9l.72.72,5.9-5.9Z" transform="translate(0.326 0.666)" fill="#90dadd" opacity="0.5"/>
      <path id="Path-123" data-name="Path" d="M18.5,0,0,18.5l.72.72L19.221.72Z" transform="translate(0.381 0.629)" fill="#90dadd" opacity="0.5"/>
      <path id="Path-124" data-name="Path" d="M31.027,0,0,31.027l.72.72L31.747.72Z" transform="translate(0.296 0.656)" fill="#90dadd" opacity="0.5"/>
      <path id="Path-125" data-name="Path" d="M43.625,0,0,43.624l.72.72L44.344.719Z" transform="translate(0.282 0.69)" fill="#90dadd" opacity="0.5"/>
      <path id="Path-126" data-name="Path" d="M56.222,0,0,56.223l.719.719L56.942.72Z" transform="translate(0.333 0.649)" fill="#90dadd" opacity="0.5"/>
      <path id="Path-127" data-name="Path" d="M68.821,0,0,68.821l.72.72L69.541.72Z" transform="translate(0.319 0.681)" fill="#90dadd" opacity="0.5"/>
      <path id="Path-128" data-name="Path" d="M81.2,0,0,81.2l.72.72L81.922.72Z" transform="translate(0.45 0.782)" fill="#90dadd" opacity="0.5"/>
      <path id="Path-129" data-name="Path" d="M68.605,0,0,68.6l.72.72,68.6-68.6Z" transform="translate(13.029 13.414)" fill="#90dadd" opacity="0.5"/>
      <path id="Path-130" data-name="Path" d="M56.007,0,0,56.007l.72.72L56.726.72Z" transform="translate(25.611 25.901)" fill="#90dadd" opacity="0.5"/>
      <path id="Path-131" data-name="Path" d="M43.481,0,0,43.481l.72.72L44.2.72Z" transform="translate(38.196 38.456)" fill="#90dadd" opacity="0.5"/>
      <path id="Path-132" data-name="Path" d="M30.883,0,0,30.883l.72.72L31.6.72Z" transform="translate(50.774 51.084)" fill="#90dadd" opacity="0.5"/>
      <path id="Path-133" data-name="Path" d="M18.285,0,0,18.285.72,19,19,.72Z" transform="translate(63.361 63.718)" fill="#90dadd" opacity="0.5"/>
      <path id="Path-134" data-name="Path" d="M5.687,0,0,5.687l.72.72L6.407.72Z" transform="translate(76.014 76.274)" fill="#90dadd" opacity="0.5"/>
    </g>
    <path id="Path-135" data-name="Path" d="M36.649,1.221,21.179,0,2.036,43.573,0,90.608,30.749,96.92l10.89-63.935Z" transform="translate(1324.911 475.105)" fill="#fff"/>
    <path id="Path-136" data-name="Path" d="M107.639,53.183C93.9,54.711,85.547,71.2,81.983,80.061c-4.174,6.719-9.366,18.427-11.911,36.854C69.563,99,68.647,86.169,67.73,77.108,71.6,74.665,73.839,59.5,63.963,32.313,52.866,1.771,45.129-.367,42.991.04,40.853.549,37.7,14.4,46.554,44.428,54.7,72.425,64.778,76.9,66.1,77.312c1.019,9.875,2.037,24.128,2.444,44.286-2.24-17.409-9.672-34.207-13.846-42.454-2.138-7.024-7.941-20.768-20.87-25.655C16.012,46.77-.786,59.394.028,64.179s12.93,2.341,27.9,4.174c11.911,1.425,22.6,10.282,26.47,13.744,3.97,8.144,9.773,22.092,12.115,36.854-3.971-12.115-10.894-18.834-16.188-22.4A23.737,23.737,0,0,0,26.6,83.522C8.071,84.846,7.257,96.961,9.5,98.284s12.216-2.749,22.4-2.749a72,72,0,0,1,17.511,2.342,40.139,40.139,0,0,1,4.48,3.563c5.192,4.887,11.809,14.049,13.642,29.83l.814-.1h1.12l.815.1C74.144,110.5,83,101.135,88.092,97.368c3.461-.509,9.977-1.324,15.475-1.731,14.558-1.018,22.194,6.312,24.637,1.731,2.545-4.582-6.21-15.17-21.889-14.457-10.18.407-17.409,9.977-19.648,13.541-4.48,3.461-11.1,10.587-15.475,24.637,2.036-18.224,6.719-30.237,10.791-37.669A56.249,56.249,0,0,1,103.363,70.9c15.882-5.294,31.56-.2,33.291-4.683C138.283,61.939,126.473,51.147,107.639,53.183Z" transform="translate(1033 646.916)" fill="#fca311"/>
    <path id="Path-137" data-name="Path" d="M26.775,25.785S38.585,2.064,74.217,11.023c0,0,5.9-12.42,26.063-10.893S123.9,22.12,123.9,22.12s6.516-9.264,17.409-9.264,16.086,10.282,16.086,10.282,5.294-15.474,32.578-15.474S225.6,36.271,225.6,36.271H0S3.766,21,26.775,25.785Z" transform="translate(1051.966 752.4)" fill="#fca311"/>
    <path id="Path-138" data-name="Path" d="M28.608,280.072l156.681-169,104.35,21.888L392.369,19.343,349.509,0l-81.65,89.183L170.729,67.5,0,280.072" transform="translate(1263.011 508.091)" fill="#fca311"/>
    <path id="Path-139" data-name="Path" d="M33.443,2.748l.81,6.822a3.881,3.881,0,0,1-3.87,4.377l-28.2.1a2.158,2.158,0,0,1-1.02-4.072L19.493,0Z" transform="translate(1352.557 774.216)" fill="#451612"/>
    <path id="Path-140" data-name="Path" d="M32,2.546l.713,6.515a3.744,3.744,0,0,1-3.767,4.174l-26.878.1A2.07,2.07,0,0,1,1.049,9.469L18.458,0Z" transform="translate(1304.925 774.927)" fill="#451612"/>
    <path id="Path-141" data-name="Path" d="M0,5.794,26.975,222.848l20.06,1.018L40.625,112.59l1.52-73.606A52.705,52.705,0,0,0,39.9,22.593L34.305,3.86A5.441,5.441,0,0,0,28.095.093Z" transform="translate(1340.385 552.996)" fill="#0e0063"/>
    <path id="Path-142" data-name="Path" d="M13.85,220.617,8.25,129.7,0,.1.72,0,9.07,129.6l5.59,91.016Z" transform="translate(1367.97 555.94)" fill="#433dc1"/>
    <path id="Path-143" data-name="Path" d="M8.756,1.124,0,125.634,1.222,222.25l19.853-.815,5.9-93.866L45.1,40.625a52.7,52.7,0,0,0,.41-16.492L42.968,4.687A5.437,5.437,0,0,0,37.368,0Z" transform="translate(1316.052 556.241)" fill="#0e0063"/>
    <path id="Path-144" data-name="Path" d="M28.506,75.846l-.3-41.028,2.24-25.452a7.815,7.815,0,0,0-7.23-8.45L8.046,0s-18.632,75.337.81,118.809L35.226,101.5Z" transform="translate(1353.414 476.327)" fill="#6273ff"/>
    <path id="Path-145" data-name="Path" d="M29.562,0l-11.3.712c-1.426,6.72-2.851,13.541-4.174,20.667-1.426,7.534-2.647,14.966-3.665,22.092C8.281,62.815,1.663,103.741.034,113.515a2.568,2.568,0,0,0,1.731,2.851c.509.2,1.12.305,1.731.509A41.137,41.137,0,0,0,12.76,118.3c-.407-11.2,0-23.11.611-34.411C14.8,53.449,29.562,0,29.562,0Z" transform="translate(1316.528 475.105)" fill="#6273ff"/>
    <path id="Path-146" data-name="Path" d="M0,10.791l12.522.408L18.63.712,4.785,0Z" transform="translate(1245.4 543.825)" fill="#f4aec0"/>
    <path id="Path-147" data-name="Path" d="M0,.611,10.995,0A2.434,2.434,0,0,1,12.42.509L16.7,4.276a2.12,2.12,0,0,1,.611,2.138l-2.342,6.923a2.217,2.217,0,0,1-1.832,1.425l-8.654.611L.814,14.05Z" transform="translate(1235.422 540.669)" fill="#ffc1cd"/>
    <path id="Path-148" data-name="Path" d="M16.173,1.044,7.112.025A3.684,3.684,0,0,0,4.567.636L.7,2.978a1.453,1.453,0,0,0-.305,2.24,1.308,1.308,0,0,0,1.221.407L5.89,4.607l9.876,3.97" transform="translate(1244.294 539.32)" fill="#f4aec0"/>
    <path id="Path-149" data-name="Path" d="M83.583,0,79.206.306A13.243,13.243,0,0,0,67.8,8.552L48.053,57.216,0,63.019V80.734L53.347,78.9a15.319,15.319,0,0,0,13.235-8.552l8.857-18.325" transform="translate(1255.885 475.512)" fill="#6273ff"/>
    <path id="Path-150" data-name="Path" d="M1.018,54.874,0,54.773c2.138-14.457,3.665-25.35,4.48-32.579C5.6,14.762,6.821,7.33,8.145,0L9.163.2C7.839,7.534,6.516,14.966,5.5,22.3,4.683,29.423,3.156,40.418,1.018,54.874Z" transform="translate(1321.958 496.484)" fill="#435ced"/>
    <path id="Path-151" data-name="Path" d="M4.855,12.184S.885,10.148.172,7.908C-1.457,2.818,8.726-5.836,20.436,5.77c0,0,6-.1,5.6,6.516-.31,6.618-3.16,15.78-3.16,15.78l-6.11-.611" transform="translate(1336.344 441.439)" fill="#033e76"/>
    <path id="Path-152" data-name="Path" d="M2.039.161A123.808,123.808,0,0,0,0,17.774a5.787,5.787,0,0,0,5.5,6.007,13.233,13.233,0,0,0,5.6-.611l-.31,5.09c.1,3.258,2.95,4.582,6.21,4.378h0c5.4-.305,7.43-5.7,7.43-5.7L23.314,19.4s-4.48-1.934-4.17-4.887c0,0,4.68-2.647,3.05-6.515-1.63-3.971-5.09.61-5.09.61s-1.63-1.119-1.02-5.4S2.039.161,2.039.161Z" transform="translate(1336.106 450.001)" fill="#ffc1cd"/>
    <path id="Path-153" data-name="Path" d="M14.66,14.253l-5.6,4.276,1.43,17.715L0,55.791A326.506,326.506,0,0,1,7.74.1L10.79,0Z" transform="translate(1353.72 476.225)" fill="#97a6ff"/>
    <path id="Path-154" data-name="Path" d="M4.989,10.079l1.629,4.886L0,25.859,1.018,53.347C5.905,26.877,13.341,0,13.341,0L12.217.1l-.611.1Z" transform="translate(1332.749 475.309)" fill="#97a6ff"/>
    <path id="Path-155" data-name="Path" d="M0,6.617.21,3.156A42.157,42.157,0,0,0,5.7,0S2.95,4.683,0,6.617Z" transform="translate(1347 470.117)" fill="#f58ea2"/>
    <path id="Path-156" data-name="Path" d="M1.012,0,0,.11l7.173,66.2,1.02-.11Z" transform="translate(1343.817 581.659)"/>
    <path id="Path-157" data-name="Path" d="M102.93,0H0V21.99H102.93Z" transform="translate(1439.95 765.969)" fill="#1c7263"/>
    <path id="Path-158" data-name="Path" d="M103.02,0H0V21.99H103.02Z" transform="translate(1414.2 765.969)" fill="#5ba39b"/>
    <path id="Path-159" data-name="Path" d="M31.45,0H0V1.018H31.45Z" transform="translate(1414.2 782.666)" fill="#1c7263" opacity="0.5"/>
    <path id="Path-160" data-name="Path" d="M54.78,0H0V1.018H54.78Z" transform="translate(1445.65 778.797)" fill="#1c7263" opacity="0.5"/>
    <path id="Path-161" data-name="Path" d="M102.92,0,19.34,14.253,0,0Z" transform="translate(1414.2 765.969)" fill="#1c7263" opacity="0.2"/>
    <path id="Path-162" data-name="Path" d="M24.43,0H0V21.99H24.43Z" transform="translate(1453.39 765.969)" fill="#6cbae1"/>
    <path id="Path-163" data-name="Path" d="M17.31,0H0V21.99H17.31Z" transform="translate(1456.95 765.969)" fill="#d7f4ff"/>
    <path id="Path-164" data-name="Path" d="M102.93,0H0V21.991H102.93Z" transform="translate(1409.92 744.08)" fill="#1c7263"/>
    <path id="Path-165" data-name="Path" d="M103.03,0H0V21.991H103.03Z" transform="translate(1533.82 744.08)" fill="#5ba39b"/>
    <path id="Path-166" data-name="Path" d="M38.58,0H0V1.018H38.58Z" transform="translate(1549.6 755.584)" fill="#1c7263" opacity="0.5"/>
    <path id="Path-167" data-name="Path" d="M23.32,0H0V1.018H23.32Z" transform="translate(1541.25 758.232)" fill="#1c7263" opacity="0.5"/>
    <path id="Path-168" data-name="Path" d="M63.42,0H0V5.6H63.93Z" transform="translate(1538.71 744.08)" fill="#134715" opacity="0.2"/>
    <path id="Path-169" data-name="Path" d="M24.44,0H0V21.991H24.44Z" transform="translate(1573.01 744.08)" fill="#6cbae1"/>
    <path id="Path-170" data-name="Path" d="M17.31,0H0V21.991H17.31Z" transform="translate(1576.58 744.08)" fill="#d7f4ff"/>
    <path id="Path-171" data-name="Path" d="M103.03,0H0V21.991H103.03Z" transform="translate(1435.78 744.08)" fill="#5ba39b"/>
    <path id="Path-172" data-name="Path" d="M81.45,0H0V1.018H81.45Z" transform="translate(1442.8 754.566)" fill="#1c7263" opacity="0.5"/>
    <path id="Path-173" data-name="Path" d="M27.18,0H0V1.018H27.18Z" transform="translate(1435.78 758.232)" fill="#1c7263" opacity="0.5"/>
    <path id="Path-174" data-name="Path" d="M41.64,0V3.767L0,0Z" transform="translate(1497.07 744.08)" fill="#134715" opacity="0.2"/>
    <path id="Path-175" data-name="Path" d="M24.43,0H0V21.991H24.43Z" transform="translate(1474.98 744.08)" fill="#6cbae1"/>
    <path id="Path-176" data-name="Path" d="M102.93,0H0V21.99H102.93Z" transform="translate(1497.78 722.09)" fill="#5ba39b"/>
    <path id="Path-177" data-name="Path" d="M59.35,0H0V1.018H59.35Z" transform="translate(1533.82 732.271)" fill="#1c7263" opacity="0.5"/>
    <path id="Path-178" data-name="Path" d="M44.59,0H0V1.426H44.59Z" transform="translate(1497.78 727.384)" fill="#1c7263" opacity="0.5"/>
    <path id="Path-179" data-name="Path" d="M0,0,102.32,6.719V0" transform="translate(1497.78 722.09)" fill="#1c7263" opacity="0.2"/>
    <path id="Path-180" data-name="Path" d="M24.43,0H0V21.99H24.43Z" transform="translate(1537.08 722.09)" fill="#6cbae1"/>
    <path id="Path-181" data-name="Path" d="M17.31,0H0V21.99H17.31Z" transform="translate(1540.64 722.09)" fill="#d7f4ff"/>
    <path id="Path-182" data-name="Path" d="M103.02,0H0V21.991H103.02Z" transform="translate(1459.2 700.608)" fill="#1c7263"/>
    <path id="Path-183" data-name="Path" d="M103.03,0H0V21.991H103.03Z" transform="translate(1482.1 700.608)" fill="#5ba39b"/>
    <path id="Path-184" data-name="Path" d="M27.69,0H0V1.018H27.69Z" transform="translate(1557.44 713.742)" fill="#1c7263" opacity="0.5"/>
    <path id="Path-185" data-name="Path" d="M61.18,0H0V1.018H61.18Z" transform="translate(1508.88 711.095)" fill="#1c7263" opacity="0.5"/>
    <path id="Path-186" data-name="Path" d="M24.43,0H0V21.991H24.43Z" transform="translate(1521.4 700.608)" fill="#6cbae1"/>
    <path id="Path-187" data-name="Path" d="M17.31,0H0V21.991H17.31Z" transform="translate(1524.96 700.608)" fill="#d7f4ff"/>
    <path id="Path-188" data-name="Path" d="M102.93,0H0V21.99H102.93Z" transform="translate(1548.48 765.969)" fill="#667f3d"/>
    <path id="Path-189" data-name="Path" d="M103.03,0H0V21.99H103.03Z" transform="translate(1522.62 765.969)" fill="#5ba39b"/>
    <path id="Path-190" data-name="Path" d="M57.62,0H0V1.018H57.62Z" transform="translate(1543.9 773.503)" fill="#1c7263" opacity="0.5"/>
    <path id="Path-191" data-name="Path" d="M23.31,0H0V1.018H23.31Z" transform="translate(1522.62 778.797)" fill="#1c7263" opacity="0.5"/>
    <path id="Path-192" data-name="Path" d="M22.5,0H0V1.018H22.5Z" transform="translate(1534.94 781.851)" fill="#1c7263" opacity="0.5"/>
    <path id="Path-193" data-name="Path" d="M24.43,0H0V21.99H24.43Z" transform="translate(1561.92 765.969)" fill="#6cbae1"/>
    <path id="Path-194" data-name="Path" d="M17.31,0H0V21.99H17.31Z" transform="translate(1565.48 765.969)" fill="#d7f4ff"/>
    <path id="Path-195" data-name="Path" d="M0,0,3.05.305,5.19,21.889H0Z" transform="translate(1538.71 744.08)" fill="#1c7263"/>
    <path id="Path-196" data-name="Path" d="M10.58,0l2.35,4.378H48.76l4.28,72.385L65.15,98.754l-10.59,4.275H5.8L0,4.378Z" transform="translate(1597.25 684.93)" fill="#1c7263"/>
    <path id="Path-197" data-name="Path" d="M0,0,5.81,98.754H54.57L48.77,0Z" transform="translate(1607.83 684.93)" fill="#388e82"/>
    <path id="Path-198" data-name="Path" d="M4.07,0H36.44a6.471,6.471,0,0,0,4.79,4.073L46.12,86.74a5.62,5.62,0,0,0-4.48,5.09H9.67a6.6,6.6,0,0,0-4.79-5.09L0,3.869A5.43,5.43,0,0,0,4.07,0Z" transform="translate(1612.01 688.391)" fill="#5ba39b"/>
    <path id="Path-199" data-name="Path" d="M28.463,22.5c4.03-6.763,1.34-15.79-6-20.163S5.9-.1,1.873,6.665s-1.34,15.79,6,20.163S24.433,29.265,28.463,22.5Z" transform="translate(1620.817 719.353)" fill="#388e82"/>
    <path id="Path-200" data-name="Path" d="M11.9,8.666A6.08,6.08,0,0,0,8.761.687,6.08,6.08,0,0,0,.541,3.145a6.08,6.08,0,0,0,3.14,7.979A6.08,6.08,0,0,0,11.9,8.666Z" transform="translate(1627.109 698.406)" fill="#388e82"/>
    <path id="Path-201" data-name="Path" d="M11.893,8.666A6.067,6.067,0,0,0,8.763.687,6.078,6.078,0,0,0,.543,3.144a6.072,6.072,0,0,0,3.14,7.98A6.069,6.069,0,0,0,11.893,8.666Z" transform="translate(1630.647 758.386)" fill="#388e82"/>
    <path id="Path-202" data-name="Path" d="M1.43,23.517,0,0H48.77l1.42,23.517Z" transform="translate(1609.97 722.497)" fill="#90dadd"/>
    <path id="Path-203" data-name="Path" d="M1.02,16.594,0,0H48.77l1.02,16.594Z" transform="translate(1610.17 725.959)" fill="#fff"/>
    <path id="Path-204" data-name="Path" d="M21.89,0H0V1.018H21.89Z" transform="translate(1482.1 703.153)" fill="#1c7263" opacity="0.5"/>
    <path id="Path-205" data-name="Path" d="M23.11,0H0V1.018H23.11Z" transform="translate(1488.82 705.699)" fill="#1c7263" opacity="0.5"/>
    <path id="Path-206" data-name="Path" d="M21.58,0H0V1.018H21.58Z" transform="translate(1414.2 751.003)" fill="#1c7263" opacity="0.5"/>
    <path id="Path-207" data-name="Path" d="M1.01,0,0,.056l2.7,49.4L3.71,49.4Z" transform="translate(1604.65 686.055)" fill="#1c7263" opacity="0.5"/>
    <path id="Path-208" data-name="Path" d="M1.02,0,0,.071,3.51,50.344l1.02-.071Z" transform="translate(1603.95 723.655)" fill="#1c7263" opacity="0.5"/>
    <path id="Path-209" data-name="Path" d="M15.06,0H0V1.018H15.06Z" transform="translate(1459.2 714.556)" fill="#1c7263" opacity="0.5"/>
    <path id="Path-210" data-name="Path" d="M8.24,0H0V1.018H8.24Z" transform="translate(1459.2 705.699)" fill="#1c7263" opacity="0.5"/>
    <path id="Path-211" data-name="Path" d="M14.97,0H0V1.018H14.97Z" transform="translate(1465.2 717.915)" fill="#1c7263" opacity="0.5"/>
    <path id="Path-212" data-name="Path" d="M10.59,0l1.43,23.517L1.33,26.877,0,3.461Z" transform="translate(1599.38 722.497)" fill="#7ad3d3"/>
    <path id="Path-213" data-name="Path" d="M10.58,0,11.6,16.594.91,20.056,0,3.359Z" transform="translate(1599.59 725.959)" fill="#c3f2f4"/>
    <path id="Path-214" data-name="Path" d="M675.391,0H0V2.036H675.391Z" transform="translate(1037.609 787.756)" fill="#0e0063"/>
    <path id="Path-215" data-name="Path" d="M128.28,105.88H4.48A4.451,4.451,0,0,1,0,101.4V4.48A4.45,4.45,0,0,1,4.48,0h123.8a4.458,4.458,0,0,1,4.48,4.48V101.4A4.522,4.522,0,0,1,128.28,105.88Z" transform="translate(1422.24 363.829)" fill="#fff"/>
    <path id="Path-216" data-name="Path" d="M21.58,14.966a2.045,2.045,0,0,1-2.04-2.036V5.091a.956.956,0,0,0-1.01-1.018H5.09A.964.964,0,0,0,4.07,5.091V12.93a2.035,2.035,0,1,1-4.07,0V5.091A5.041,5.041,0,0,1,5.09,0H18.53a5.041,5.041,0,0,1,5.09,5.091V12.93A2.045,2.045,0,0,1,21.58,14.966Z" transform="translate(1365.23 610.916)" fill="#6273ff"/>
    <path id="Path-217" data-name="Path" d="M6.11,49.886H63.02a6.128,6.128,0,0,0,6.11-6.108V6.109A6.128,6.128,0,0,0,63.02,0H6.11A6.128,6.128,0,0,0,0,6.109V43.778A6.128,6.128,0,0,0,6.11,49.886Z" transform="translate(1349.65 622.216)" fill="#2d329e"/>
    <path id="Path-218" data-name="Path" d="M6.112,49.886h56.91a6.128,6.128,0,0,0,6.11-6.108V6.109A6.128,6.128,0,0,0,63.022,0H6.112A6.128,6.128,0,0,0,0,6.109V43.778A6.127,6.127,0,0,0,6.112,49.886Z" transform="translate(1339.468 622.216)" fill="#4445b3"/>
    <path id="Path-219" data-name="Path" d="M6.013,0h56.91a6.128,6.128,0,0,1,6.11,6.109L56.713,19.242a11.347,11.347,0,0,1-8.15,3.563H19.653a11.216,11.216,0,0,1-8.45-3.868L0,6.109A5.916,5.916,0,0,1,6.013,0Z" transform="translate(1339.567 622.216)" fill="#6273ff"/>
    <path id="Path-220" data-name="Path" d="M1.2,0,.188,5.09a8.6,8.6,0,0,0,.1,3.971l1.63,6.719a3.054,3.054,0,0,0,3.56,2.24l6.82-1.629a1.852,1.852,0,0,0,1.53-1.833l.3-6.414,1.53-5.7Z" transform="translate(1368.912 600.328)" fill="#ffc1cd"/>
    <path id="Path-221" data-name="Path" d="M.1,0,7.74.509A13.214,13.214,0,0,1,19.86,11.5l7.43,47.951A40.846,40.846,0,0,1,27.08,73.1L17.01,127.564,0,125.121,7.74,67.4Z" transform="translate(1368.48 476.836)" fill="#6273ff"/>
    <path id="Path-222" data-name="Path" d="M.92,93.968l-.92-.2L7.74,36.141,3.67.1,4.69,0,8.76,36.141Z" transform="translate(1367.87 508.091)" fill="#435ced"/>
    <path id="Path-223" data-name="Path" d="M21.584,14.966a2.043,2.043,0,0,1-2.037-2.037V5.09a.962.962,0,0,0-1.018-1.018H5.091A.962.962,0,0,0,4.073,5.09v7.839a2.037,2.037,0,1,1-4.073,0V5.09A5.041,5.041,0,0,1,5.091,0H18.529A5.041,5.041,0,0,1,23.62,5.09v7.839A2.043,2.043,0,0,1,21.584,14.966Z" transform="translate(1222.594 606.844)" fill="#0e0063"/>
    <path id="Path-224" data-name="Path" d="M6.109,49.886h56.91a6.126,6.126,0,0,0,6.108-6.109V6.109A6.126,6.126,0,0,0,63.019,0H6.109A6.127,6.127,0,0,0,0,6.109V43.777A6.127,6.127,0,0,0,6.109,49.886Z" transform="translate(1207.017 618.144)" fill="#2d329e"/>
    <path id="Path-225" data-name="Path" d="M6.109,49.886h56.91a6.127,6.127,0,0,0,6.109-6.109V6.109A6.127,6.127,0,0,0,63.019,0H6.109A6.127,6.127,0,0,0,0,6.109V43.777A6.127,6.127,0,0,0,6.109,49.886Z" transform="translate(1196.836 618.144)" fill="#4445b3"/>
    <path id="Path-226" data-name="Path" d="M6.01,0H62.92a6.127,6.127,0,0,1,6.109,6.109L56.71,19.242a11.345,11.345,0,0,1-8.144,3.563H19.652a11.213,11.213,0,0,1-8.45-3.869L0,6.109A5.916,5.916,0,0,1,6.01,0Z" transform="translate(1196.935 618.144)" fill="#0e0063"/>
    <path id="Path-227" data-name="Path" d="M14.457,0l1.018,5.09a8.708,8.708,0,0,1-.1,3.97l-1.629,6.72a3.06,3.06,0,0,1-3.563,2.239L3.36,16.391a1.853,1.853,0,0,1-1.527-1.833l-.3-6.414L0,2.443Z" transform="translate(1226.36 596.256)" fill="#ffc1cd"/>
    <path id="Path-228" data-name="Path" d="M0,0,6.414.509a12.327,12.327,0,0,1,11,9.978l9.468,51.718,15.882,59.353-16.187,2.749L6.516,67.5" transform="translate(1198.771 475.512)" fill="#14213d"/>
    <path id="Path-229" data-name="Path" d="M4.988,1.221,20.463,0,39.6,43.573l2.036,47.035L10.893,96.92,0,32.985Z" transform="translate(1171.691 475.105)" fill="#5ba39b"/>
    <path id="Path-230" data-name="Path" d="M.848,2.748.033,9.57A3.882,3.882,0,0,0,3.9,13.947l28.2.1a2.158,2.158,0,0,0,1.019-4.072L14.8,0Z" transform="translate(1151.397 774.216)" fill="#0e0063"/>
    <path id="Path-231" data-name="Path" d="M.746,2.546.033,9.061A3.743,3.743,0,0,0,3.8,13.235l26.877.1A2.07,2.07,0,0,0,31.7,9.469L14.286,0Z" transform="translate(1204.542 774.927)" fill="#0e0063"/>
    <path id="Path-232" data-name="Path" d="M47.035,5.794,20.056,222.848,0,223.866,4.378,112.59l.509-73.606a52.676,52.676,0,0,1,2.24-16.391l5.6-18.733A5.445,5.445,0,0,1,18.936.093Z" transform="translate(1150.82 552.996)" fill="#fff"/>
    <path id="Path-233" data-name="Path" d="M1.018,219.6,0,219.5,7.635,27.386,10.791,0l1.018.1L8.653,27.488Z" transform="translate(1155.706 557.264)" fill="#90dadd"/>
    <path id="Path-234" data-name="Path" d="M37.212,1.124l4.683,120.438L44.746,222.25l-19.853-.815L14.916,123.5.867,40.625A52.672,52.672,0,0,1,.46,24.133L3,4.687A5.434,5.434,0,0,1,8.6,0Z" transform="translate(1180.189 556.241)" fill="#fff"/>
    <path id="Path-235" data-name="Path" d="M4.785,75.846,4.072,34.818,2.138,13.235A11.465,11.465,0,0,1,12.93.712L24.128,0s17.308,69.941,1.12,113.922a5.166,5.166,0,0,1-6.617,3.054L0,109.646Z" transform="translate(1152.55 476.327)" fill="#14213d"/>
    <path id="Path-236" data-name="Path" d="M29.626,113.515a2.566,2.566,0,0,1-1.731,2.851c-.509.2-1.119.305-1.73.509-2.546.611-8.756,1.018-12.93,1.222a3.24,3.24,0,0,1-3.36-3.258c.2-10.181-.2-20.871-.712-30.95C7.636,53.347,0,0,0,0L11.3.713c1.425,6.719,2.85,13.54,4.174,20.667" transform="translate(1192.052 475.207)" fill="#14213d"/>
    <path id="Path-237" data-name="Path" d="M8.145,54.976C6.007,40.519,4.48,29.524,3.666,22.3,2.546,14.966,1.324,7.534,0,.2L1.019,0C2.342,7.33,3.666,14.762,4.684,22.092,5.5,29.32,7.025,40.316,9.163,54.772Z" transform="translate(1207.118 496.383)" fill="#203053"/>
    <path id="Path-238" data-name="Path" d="M24.6,9.621s4.174-3.971.815-6.821S6.278-2.7,3.122,5.447c0,0-7.025,3.461,0,21.888h5.6" transform="translate(1175.797 442.069)" fill="#033e76"/>
    <path id="Path-239" data-name="Path" d="M22.4.161a123.9,123.9,0,0,1,2.037,17.613,5.788,5.788,0,0,1-5.5,6.007,13.2,13.2,0,0,1-5.6-.611l.305,5.09c-.1,3.258-2.952,4.582-6.21,4.378h0c-5.4-.305-7.432-5.7-7.432-5.7L1.12,19.4S5.6,17.469,5.294,14.516c0,0-4.683-2.647-3.055-6.515,1.629-3.971,5.091.61,5.091.61s1.629-1.119,1.018-5.4S22.4.161,22.4.161Z" transform="translate(1177.698 450.001)" fill="#ffc1cd"/>
    <path id="Path-240" data-name="Path" d="M0,14.253l5.6,4.276L4.174,36.244,14.661,55.791A326.157,326.157,0,0,0,6.923.1L3.869,0Z" transform="translate(1169.857 476.225)" fill="#203053"/>
    <path id="Path-241" data-name="Path" d="M7.024,10.486,5.395,15.373l4.276,9.57L7.024,57.012C3.868,32.069,0,0,0,0L1.119.1,1.73.2Z" transform="translate(1192.154 475.105)" fill="#203053"/>
    <path id="Path-242" data-name="Path" d="M5.7,6.617,5.5,3.156A42.561,42.561,0,0,1,0,0S2.749,4.683,5.7,6.617Z" transform="translate(1185.536 470.117)" fill="#f58ea2"/>
    <path id="Path-243" data-name="Path" d="M7.15,0,0,66.195l1.012.11L8.163.109Z" transform="translate(1186.216 581.611)" fill="#90dadd"/>
    <path id="Path-244" data-name="Path" d="M0,3.359s.306,10.283,2.749,12.93S15.984,21.074,17,13.336c0,0-1.832-1.323-5.6.408-4.072,1.73-6.312,2.239-7.737,1.12S1.019,6.515,1.12,0Z" transform="translate(1185.128 455.355)" fill="#033e76"/>
    <path id="Path-245" data-name="Path" d="M18.205,0,11.689.306A12.254,12.254,0,0,0,.287,15.17l11.5,52.023a12.242,12.242,0,0,0,11.3,9.57l61.186,3.156v-16.9L31.44,54.976Z" transform="translate(1153.179 476.734)" fill="#14213d"/>
    <path id="Path-246" data-name="Path" d="M79,40.519,17.816,37.363A12.788,12.788,0,0,1,6.007,27.386L0,.2,1.018,0,7.025,27.182a11.811,11.811,0,0,0,10.791,9.163L79,39.5Z" transform="translate(1158.557 516.541)" fill="#203053"/>
    <path id="Path-247" data-name="Path" d="M0,27.284l79.61,39.4V0Z" transform="translate(1591.24 476.836)" fill="#fca311"/>
    <path id="Shape" d="M1.094,12.089a8.1,8.1,0,0,1,2.851-11,8.1,8.1,0,0,1,10.994,2.85,8.1,8.1,0,0,1-2.85,11,8.78,8.78,0,0,1-4.073,1.119A8.065,8.065,0,0,1,1.094,12.089Z" transform="translate(1162.961 343.087)" fill="#14213d" opacity="0.21"/>
    <path id="Shape-2" data-name="Shape" d="M1.094,12.089a8.1,8.1,0,0,1,2.85-11,8.105,8.105,0,0,1,11,2.85,8.107,8.107,0,0,1-2.85,11,8.2,8.2,0,0,1-4.08,1.12A8.062,8.062,0,0,1,1.094,12.089Z" transform="translate(1598.696 327.307)" fill="#14213d" opacity="0.21"/>
    <path id="Shape-3" data-name="Shape" d="M.762,8.5a5.656,5.656,0,0,1,9.77-5.7,5.277,5.277,0,0,1,.609,4.276A5.933,5.933,0,0,1,8.5,10.535a5.669,5.669,0,0,1-2.85.712A5.721,5.721,0,0,1,.762,8.5Z" transform="translate(1465.558 293.024)" fill="#14213d" opacity="0.21"/>
    <path id="Shape-4" data-name="Shape" d="M.762,8.5a5.658,5.658,0,1,1,9.773-5.7A5.681,5.681,0,0,1,8.5,10.535a5.4,5.4,0,0,1-2.851.712A5.72,5.72,0,0,1,.762,8.5Z" transform="translate(1093.148 586.636)" fill="#14213d" opacity="0.21"/>
    <path id="Shape-5" data-name="Shape" d="M.816,8.5a5.28,5.28,0,0,1-.61-4.276A5.941,5.941,0,0,1,2.847.761a5.657,5.657,0,1,1,5.7,9.774,5.619,5.619,0,0,1-2.85.712A5.7,5.7,0,0,1,.816,8.5Z" transform="translate(1672.484 621.862)" fill="#14213d" opacity="0.21"/>
    <path id="Path-248" data-name="Path" d="M1.486,61.709a1.4,1.4,0,0,1-.91-.305,1.486,1.486,0,0,1-.21-2.138L21.236,33.2a3.15,3.15,0,0,1,.72-.509l11.5-3.359L42.826,16.1a1.341,1.341,0,0,1,1.02-.611l24.74-3.462a1.584,1.584,0,0,1,1.52.713l5.3,7.941,8.96-14.457a1.337,1.337,0,0,1,.71-.611l12.21-5.5a1.572,1.572,0,0,1,2.04.814,1.567,1.567,0,0,1-.81,2.036L86.706,8.26l-9.88,16.086a1.577,1.577,0,0,1-1.32.713,1.5,1.5,0,0,1-1.33-.713l-6.1-9.163-23.11,3.156L35.7,31.473a1.576,1.576,0,0,1-.81.61l-11.51,3.462L2.816,61.2A2.411,2.411,0,0,1,1.486,61.709Z" transform="translate(1436.834 393.34)" fill="#3c4c71"/>
    <path id="Path-249" data-name="Path" d="M94.17,73.2H1.52A1.563,1.563,0,0,1,0,71.672V1.527A1.562,1.562,0,0,1,1.52,0,1.564,1.564,0,0,1,3.05,1.527V70.145H94.17a1.527,1.527,0,1,1,0,3.054Z" transform="translate(1436.8 381.85)" fill="#14213d"/>
    <path id="Path-250" data-name="Path" d="M1.5,46.427a1.229,1.229,0,0,1-1.22-.713,1.507,1.507,0,0,1,.4-2.138l21.59-14.354a1.147,1.147,0,0,1,.81-.306H35.6l8.86-8.043a1.315,1.315,0,0,1,1.02-.407h18.43a1.66,1.66,0,0,1,1.12.509l2.74,3.054L92.625.41a1.47,1.47,0,0,1,2.13.1,1.481,1.481,0,0,1-.1,2.138L68.695,27.287a1.518,1.518,0,0,1-1.12.408,1.637,1.637,0,0,1-1.12-.51l-3.36-3.766h-17.1l-8.86,8.042a1.312,1.312,0,0,1-1.02.408H23.495L2.415,46.122A1.627,1.627,0,0,1,1.5,46.427Z" transform="translate(1440.995 408.622)" fill="#14213d"/>
    <path id="Path-251" data-name="Path" d="M29.727,59.455A29.728,29.728,0,1,0,0,29.727,29.728,29.728,0,0,0,29.727,59.455Z" transform="translate(1229.924 320.358)" fill="#e5842c"/>
    <path id="Path-252" data-name="Path" d="M29.728,59.455A29.728,29.728,0,1,0,0,29.727,29.728,29.728,0,0,0,29.728,59.455Z" transform="translate(1224.833 320.358)" fill="#f49d46"/>
    <path id="Path-253" data-name="Path" d="M7.41,15.17h0c-2.444-.408-4.073-1.731-4.276-3.462a3.3,3.3,0,0,1,1.934-3.36,4.675,4.675,0,0,1,5.9,1.426,1.6,1.6,0,0,0,2.138.407,1.507,1.507,0,0,0,.407-2.138A8.3,8.3,0,0,0,8.835,4.887V1.527A1.566,1.566,0,0,0,7.308,0,1.566,1.566,0,0,0,5.781,1.527v3.36A9.058,9.058,0,0,0,3.745,5.5,6.1,6.1,0,0,0,.08,12.014c.3,2.341,2.138,5.09,6.312,6.006h.1c2.444.407,3.971,1.731,4.175,3.462a3.3,3.3,0,0,1-1.935,3.359,4.675,4.675,0,0,1-5.9-1.425A1.6,1.6,0,0,0,.69,23.009a1.508,1.508,0,0,0-.407,2.138,8.109,8.109,0,0,0,5.5,3.258V30.95a1.566,1.566,0,0,0,1.527,1.527A1.566,1.566,0,0,0,8.835,30.95V28.1c.407-.1.713-.305,1.12-.407a6.1,6.1,0,0,0,3.665-6.516C13.416,18.835,11.584,16.086,7.41,15.17Z" transform="translate(1246.642 333.796)" fill="#fff"/>
    <path id="Path-254" data-name="Path" d="M36.421,19.263a18.225,18.225,0,1,0-19.24,17.156A18.229,18.229,0,0,0,36.421,19.263Z" transform="translate(1353.919 276.008)" fill="#f49d46"/>
    <path id="Path-255" data-name="Path" d="M8.322,12.93c-.2-1.425-1.32-3.054-3.87-3.665h-.1c-1.42-.306-2.44-1.018-2.54-2.138a1.918,1.918,0,0,1,1.22-2.036,2.951,2.951,0,0,1,3.66.916.948.948,0,1,0,1.53-1.12,5.1,5.1,0,0,0-2.85-1.934V.917a.915.915,0,1,0-1.83,0V2.953a5.536,5.536,0,0,0-1.22.407A3.759,3.759,0,0,0,.082,7.33c.2,1.426,1.32,3.055,3.86,3.665h.11c1.42.306,2.44,1.019,2.54,2.138a1.932,1.932,0,0,1-1.22,2.037,2.973,2.973,0,0,1-3.67-.917.959.959,0,0,0-1.32-.2.957.957,0,0,0-.2,1.323,4.8,4.8,0,0,0,3.36,2.036v1.527a.915.915,0,1,0,1.83,0v-1.73c.2-.1.51-.2.71-.306A3.891,3.891,0,0,0,8.322,12.93Z" transform="translate(1367.388 284.318)" fill="#fff"/>
    <path id="Path-256" data-name="Path" d="M26.26,0H3.97a26.791,26.791,0,0,0,22.8,40.825,25.924,25.924,0,0,0,3.97-.306V4.48A4.515,4.515,0,0,0,26.26,0Z" transform="translate(1524.25 363.728)" fill="#90dadd" opacity="0.3"/>
    <path id="Path-257" data-name="Path" d="M26.78,53.551A26.775,26.775,0,1,0,0,26.776,26.769,26.769,0,0,0,26.78,53.551Z" transform="translate(1527.3 340.821)" fill="#14213d"/>
    <path id="Path-258" data-name="Path" d="M19.138,12.726a1.984,1.984,0,0,1-1.42-.61l-7.13-7.127-7.13,7.127a1.968,1.968,0,0,1-2.85,0,1.976,1.976,0,0,1,0-2.851L9.267.61a1.968,1.968,0,0,1,2.85,0l8.65,8.654a1.96,1.96,0,0,1,0,2.851A2.953,2.953,0,0,1,19.138,12.726Z" transform="translate(1543.593 355.583)" fill="#fff"/>
    <path id="Path-259" data-name="Path" d="M2.04,22.907A2.046,2.046,0,0,1,0,20.87V2.036a2.04,2.04,0,0,1,4.08,0V20.87A2.046,2.046,0,0,1,2.04,22.907Z" transform="translate(1552.04 356.194)" fill="#fff"/>
    <path id="Path-260" data-name="Path" d="M14.151,22.093H2.341A2.368,2.368,0,0,1,0,19.751V2.342A2.368,2.368,0,0,1,2.341,0h11.81a2.368,2.368,0,0,1,2.342,2.342V19.751A2.438,2.438,0,0,1,14.151,22.093Z" transform="translate(1064.284 440.287)" fill="#fca311"/>
    <path id="Path-261" data-name="Path" d="M14.151,35.938H2.342A2.368,2.368,0,0,1,0,33.6V2.342A2.368,2.368,0,0,1,2.342,0H14.151a2.368,2.368,0,0,1,2.342,2.342V33.6A2.3,2.3,0,0,1,14.151,35.938Z" transform="translate(1088.616 426.441)" fill="#fca311"/>
    <path id="Path-262" data-name="Path" d="M14.151,49.682H2.341A2.368,2.368,0,0,1,0,47.34v-45A2.368,2.368,0,0,1,2.341,0h11.81a2.367,2.367,0,0,1,2.341,2.342v45A2.3,2.3,0,0,1,14.151,49.682Z" transform="translate(1112.947 412.697)" fill="#fca311"/>
  </g>
</svg>
