<svg xmlns="http://www.w3.org/2000/svg" xmlns:xlink="http://www.w3.org/1999/xlink" width="152" height="152" viewBox="0 0 152 152">
  <defs>
    <filter id="Ellipse_19" x="0" y="0" width="152" height="152" filterUnits="userSpaceOnUse">
      <feOffset dy="3" input="SourceAlpha"/>
      <feGaussianBlur stdDeviation="3" result="blur"/>
      <feFlood flood-color="#fca311"/>
      <feComposite operator="in" in2="blur"/>
      <feComposite in="SourceGraphic"/>
    </filter>
  </defs>
  <g id="Group_64" data-name="Group 64" transform="translate(-1239 -1129)">
    <g id="Group_34" data-name="Group 34" transform="translate(1040 238)">
      <g transform="matrix(1, 0, 0, 1, 199, 891)" filter="url(#Ellipse_19)">
        <g id="Ellipse_19-2" data-name="Ellipse 19" transform="translate(9 6)" fill="none" stroke="#fca311" stroke-width="1">
          <circle cx="67" cy="67" r="67" stroke="none"/>
          <circle cx="67" cy="67" r="66.5" fill="none"/>
        </g>
      </g>
    </g>
    <g id="business-meeting" transform="translate(1280 1099.078)">
      <g id="Group_43" data-name="Group 43" transform="translate(0 78.922)">
        <g id="Group_41" data-name="Group 41" transform="translate(19.814)">
          <path id="Path_29" data-name="Path 29" d="M211.414,89.565a5.321,5.321,0,1,0-5.321-5.321A5.321,5.321,0,0,0,211.414,89.565Z" transform="translate(-196.317 -78.922)" fill="#fca311"/>
          <path id="Path_30" data-name="Path 30" d="M163.39,170.886c.361-3.038.831-12.553-7.074-15.171-.159-.053-1.406-.505-1.888-.623l-1.311,1.349-1.3-1.349-.014,0c-.494.119-1.736.571-1.879.621-7.949,2.779-7.453,12.16-7.078,15.171H138v3.555h1.7V191.21H143V174.441h3.415a2.474,2.474,0,0,0-.316,1.505L147.675,189a2.477,2.477,0,0,0,2.459,2.2c.09,0,.182-.005.273-.014a2.478,2.478,0,0,0,2.189-2.734l-1.369-11.2,1.881-.769,1.82.758-1.358,11.221a2.474,2.474,0,0,0,2.193,2.728,2.342,2.342,0,0,0,.27.016,2.477,2.477,0,0,0,2.46-2.206l1.56-13.06a2.473,2.473,0,0,0-.315-1.5H163.2v16.767h3.3V174.441h1.722v-3.555Zm-15.735,0h-.633c-.134-.89-.638-4.949.633-7.98Zm5.466-3.914H153.1l-1.29-1.757,1.29-8.578h.024l1.277,8.578Zm6.1,3.914h-.669v-8.008C159.866,165.923,159.35,170,159.217,170.886Z" transform="translate(-138.004 -144.156)" fill="#fca311"/>
        </g>
        <g id="Group_42" data-name="Group 42" transform="translate(0 2.966)">
          <circle id="Ellipse_20" data-name="Ellipse 20" cx="5.098" cy="5.098" r="5.098" transform="translate(5.269)" fill="#fca311"/>
          <path id="Path_31" data-name="Path 31" d="M49.525,181.552c-6.076.45-6.867-1.674-8.348-5.641a4.711,4.711,0,0,0-3.318-2.769,4.086,4.086,0,0,0-1.106-.15,7.467,7.467,0,0,0-1.158.14H35.58c-1.716.418-3.542,1.813-3.546,3.91l-.011,11.25c0,2.444,1.67,3.747,3.92,3.751l3.144,0A2.924,2.924,0,0,1,42.12,195.5c-.218,2.557-.553,5.412-.82,8.475a2.476,2.476,0,0,0,2.252,2.681c.073.007.146.009.218.009a2.475,2.475,0,0,0,2.463-2.259c1.169-13.38.646-14.2.286-15.041-.39-.734-1.158-1.752-5.141-2.03l0-3.3c1.381,1.058,3.239,1.557,6.065,1.557.725,0,1.511-.032,2.371-.094a1.98,1.98,0,0,0-.293-3.948Z" transform="translate(-27.425 -162.452)" fill="#fca311"/>
          <path id="Path_32" data-name="Path 32" d="M11.881,213.853H8.5c-5.223,0-4.693-4.723-4.693-4.723v-9.942a1.9,1.9,0,0,0-3.81,0v16.569a1.9,1.9,0,0,0,.762,1.515v10.02H3.047v-9.629H9.9v9.629h2.285v-9.661a1.9,1.9,0,0,0-.308-3.778Z" transform="translate(0 -183.256)" fill="#fca311"/>
          <circle id="Ellipse_21" data-name="Ellipse 21" cx="5.098" cy="5.098" r="5.098" transform="translate(54.382)" fill="#fca311"/>
          <path id="Path_33" data-name="Path 33" d="M327.282,195.5a2.924,2.924,0,0,1,3.033-3.464l3.144,0c2.25,0,3.923-1.307,3.92-3.751l-.011-11.25c0-2.1-1.83-3.492-3.547-3.91h-.015a7.467,7.467,0,0,0-1.158-.14,4.086,4.086,0,0,0-1.106.15,4.711,4.711,0,0,0-3.318,2.769c-1.481,3.967-2.272,6.091-8.348,5.641a1.98,1.98,0,0,0-.292,3.948c.86.062,1.646.094,2.371.094,2.826,0,4.684-.5,6.065-1.557l0,3.3c-3.982.278-4.751,1.3-5.141,2.03-.36.843-.883,1.661.286,15.041a2.475,2.475,0,0,0,2.463,2.259c.072,0,.144,0,.218-.009a2.476,2.476,0,0,0,2.251-2.681C327.836,200.917,327.5,198.061,327.282,195.5Z" transform="translate(-272.13 -162.452)" fill="#fca311"/>
          <path id="Path_34" data-name="Path 34" d="M402.346,197.285a1.9,1.9,0,0,0-1.9,1.9v9.942s.53,4.723-4.693,4.723H392.37a1.9,1.9,0,0,0-.308,3.778v9.661h2.285v-9.629H401.2v9.629h2.285v-10.02a1.9,1.9,0,0,0,.762-1.515V199.189A1.9,1.9,0,0,0,402.346,197.285Z" transform="translate(-334.404 -183.257)" fill="#fca311"/>
        </g>
      </g>
    </g>
  </g>
</svg>
