<svg xmlns="http://www.w3.org/2000/svg" xmlns:xlink="http://www.w3.org/1999/xlink" width="152" height="152" viewBox="0 0 152 152">
  <defs>
    <filter id="Ellipse_19" x="0" y="0" width="152" height="152" filterUnits="userSpaceOnUse">
      <feOffset dy="3" input="SourceAlpha"/>
      <feGaussianBlur stdDeviation="3" result="blur"/>
      <feFlood flood-color="#fca311"/>
      <feComposite operator="in" in2="blur"/>
      <feComposite in="SourceGraphic"/>
    </filter>
  </defs>
  <g id="Group_34" data-name="Group 34" transform="translate(-199 -891)">
    <g id="handshake" transform="translate(233 851.079)">
      <path id="Path_11" data-name="Path 11" d="M112.754,306.769a2.441,2.441,0,0,0,.222-3.443l-.134-.154a2.422,2.422,0,0,0-1.674-.818h-.162a2.423,2.423,0,0,0-1.607.606l-3.27,2.871-2.978,2.614a2.445,2.445,0,0,0-.221,3.442l.137.156a2.443,2.443,0,0,0,3.444.222l2.289-2.009Z" transform="translate(-85.526 -181.739)" fill="#fca311"/>
      <path id="Path_12" data-name="Path 12" d="M101.918,310.39c-.068,0-.134,0-.2-.006a3,3,0,0,1-2.076-1.021l-.138-.158a3.03,3.03,0,0,1,.274-4.263l6.251-5.489a3.036,3.036,0,0,1,2.191-.745,3,3,0,0,1,2.076,1.021l.192.223a3.02,3.02,0,0,1-.329,4.2l-6.249,5.489a2.994,2.994,0,0,1-1.99.75Zm6.1-10.512a1.856,1.856,0,0,0-1.222.467l-6.249,5.489a1.861,1.861,0,0,0-.167,2.619l.138.158a1.858,1.858,0,0,0,2.619.167l6.248-5.489a1.856,1.856,0,0,0,.168-2.617l-.137-.158a1.838,1.838,0,0,0-1.272-.625Z" transform="translate(-82.542 -178.686)" fill="#fca311"/>
      <path id="Path_13" data-name="Path 13" d="M190.443,366.414a2.431,2.431,0,0,0-1.608.6l-3.225,2.831a2.441,2.441,0,1,0,3.22,3.67l3.225-2.831a2.44,2.44,0,0,0-1.612-4.275Z" transform="translate(-154.445 -235.282)" fill="#fca311"/>
      <path id="Path_14" data-name="Path 14" d="M184.244,371.908a3.024,3.024,0,0,1-2-5.3l3.226-2.831a3.116,3.116,0,0,1,4.269.278,3.026,3.026,0,0,1-.278,4.27l-3.225,2.831a3.009,3.009,0,0,1-1.994.75Zm3.221-7.708a1.851,1.851,0,0,0-1.228.453l-3.226,2.831a1.858,1.858,0,0,0,2.453,2.793l3.226-2.828a1.856,1.856,0,0,0-1.226-3.252Z" transform="translate(-151.466 -232.481)" fill="#fca311"/>
      <path id="Path_15" data-name="Path 15" d="M10.619,93.793,4.062,122.4,9.3,125.344l13.565-22.065Z" transform="translate(-3.395 -7.416)" fill="#fca311"/>
      <path id="Path_16" data-name="Path 16" d="M6.112,120.925,0,117.491,6.857,87.568,20.244,97.934ZM1.334,116.9l4.372,2.453,13-21.14-11.114-8.6Z" transform="translate(0 -2.213)" fill="#fca311"/>
      <path id="Path_17" data-name="Path 17" d="M78.87,287.028a2.442,2.442,0,0,0,.224-3.445l-.042-.048a2.422,2.422,0,0,0-1.675-.825h-.162a2.423,2.423,0,0,0-1.607.606l-3.916,3.429a2.474,2.474,0,0,0,3.232,3.745l.032-.027.3-.261,2.981-2.616Z" transform="translate(-59.228 -165.319)" fill="#fca311"/>
      <path id="Path_18" data-name="Path 18" d="M70.424,288.677a2.124,2.124,0,0,1-.228-.008,3.1,3.1,0,0,1-2.109-1.064,3.025,3.025,0,0,1,.277-4.269l3.912-3.433a3.057,3.057,0,0,1,4.033,4.595l-3.91,3.433A2.972,2.972,0,0,1,70.424,288.677Zm3.844-8.358a1.85,1.85,0,0,0-1.222.467l-3.912,3.433a1.857,1.857,0,0,0-.171,2.621h0a1.942,1.942,0,0,0,1.317.67,1.814,1.814,0,0,0,1.344-.451l3.91-3.433a1.858,1.858,0,0,0,.171-2.621,1.881,1.881,0,0,0-1.316-.676Z" transform="translate(-56.281 -162.346)" fill="#fca311"/>
      <path id="Path_19" data-name="Path 19" d="M150.393,337.267a2.424,2.424,0,0,0-.6-1.77l-.035-.04a2.421,2.421,0,0,0-1.671-.818h-.162a2.422,2.422,0,0,0-1.607.606l-.383.336-3.957,3.474-1.051.918a2.478,2.478,0,0,0,1.486,4.31,2.416,2.416,0,0,0,1.77-.6l5.388-4.729A2.426,2.426,0,0,0,150.393,337.267Z" transform="translate(-117.108 -208.724)" fill="#fca311"/>
      <path id="Path_20" data-name="Path 20" d="M139.526,341.828c-.067,0-.132,0-.2-.006a3.052,3.052,0,0,1-1.834-5.332l5.383-4.735a3.052,3.052,0,0,1,2.191-.745,3,3,0,0,1,2.073,1.018,3.024,3.024,0,0,1-.235,4.31l-5.388,4.729A3,3,0,0,1,139.526,341.828Zm3.738-8.854-5,4.389a1.86,1.86,0,0,0-.175,2.622,1.884,1.884,0,0,0,1.309.667,1.838,1.838,0,0,0,1.35-.459l5.388-4.729a1.856,1.856,0,0,0,.172-2.619l0,0a1.869,1.869,0,0,0-1.311-.668h-.124a1.83,1.83,0,0,0-1.222.467Z" transform="translate(-114.061 -205.686)" fill="#fca311"/>
      <path id="Path_21" data-name="Path 21" d="M113.479,183.986,94.471,168.5c-7.279,3.865-12.433,1.876-14.9.3a2.777,2.777,0,0,1,.234-4.789l6.335-3.365c-.163-.024-.324-.045-.467-.06A122.59,122.59,0,0,1,68.4,162.075L57.323,180.087l2.469,1.882,2.9-2.548a4.855,4.855,0,0,1,6.852.446h0l.042.048a4.815,4.815,0,0,1,1.117,2.35,4.761,4.761,0,0,1,3-.818,4.822,4.822,0,0,1,3.333,1.642l.137.156a4.822,4.822,0,0,1,1.195,3.516v.007a4.9,4.9,0,0,1,.669-.022,4.823,4.823,0,0,1,3.333,1.642l-.873.836.908-.8a4.824,4.824,0,0,1,1.2,3.518c0,.016-.007.032-.008.048a4.809,4.809,0,0,1,4.355,7.475l5.208,3.005a2.413,2.413,0,0,0,3.263-.864,2.366,2.366,0,0,0-.709-3.164L87.421,192.7c-.007,0-.011-.013-.016-.018l-.558-.387a1.208,1.208,0,0,1,1.375-1.986l11.7,8.1a2.377,2.377,0,0,0,3.307-.6v0a2.386,2.386,0,0,0-.584-3.29L91,186.265c-.007,0-.009-.013-.016-.018a1.209,1.209,0,0,1,1.4-1.969l13.048,9.257a2.53,2.53,0,0,0,3.011-4.064l-14.04-10.117a1.208,1.208,0,1,1,1.34-2.009c.021.014.041.028.061.044l.96.684h.013l13.012,9.375c.024.018.042.04.065.057l.215.154a1.127,1.127,0,0,1,.117.092l.234.16a2.516,2.516,0,0,0,3.43-.474,2.477,2.477,0,0,0,.433-2.238,2.418,2.418,0,0,0-.81-1.214Z" transform="translate(-47.913 -63.244)" fill="#fca311"/>
      <path id="Path_22" data-name="Path 22" d="M90.4,200.36a2.939,2.939,0,0,1-1.47-.394l-5.75-3.316.35-.514a4.254,4.254,0,0,0-3.278-6.6,2.888,2.888,0,0,0-.435.012l-.784.049.045-.665a4.266,4.266,0,0,0-.689-2.676l-.438.385-.79-.86.444-.425a4.241,4.241,0,0,0-2.539-1.051,3.931,3.931,0,0,0-.51.016l-.627.047-.078-.691v-.025a4.264,4.264,0,0,0-1.051-3.045l-.138-.158a4.229,4.229,0,0,0-5.567-.72l-.744.5-.156-.883a4.288,4.288,0,0,0-7.051-2.508l-3.262,2.864L52.6,177.216,64.12,158.481l.314-.009a122.425,122.425,0,0,0,17.184-1.477l.082-.016.083.007c.154.014.325.037.5.063l1.752.263-7.9,4.2a2.193,2.193,0,0,0-.19,3.787c2.318,1.48,7.266,3.408,14.306-.328l.342-.182L109.9,180.514a3.007,3.007,0,0,1,1,1.51,3.054,3.054,0,0,1-.533,2.761,3.106,3.106,0,0,1-4.234.584l-.655-.489-13.95-10.045a.621.621,0,0,0-.867.142l0,0a.623.623,0,0,0,.143.869h0l14.042,10.125a3.114,3.114,0,0,1-3.691,5.014L88.1,181.737a.624.624,0,1,0-.724,1.017l11.659,8.275a2.961,2.961,0,0,1-3.4,4.85h0l-11.694-8.1a.624.624,0,0,0-.743,1l.035.024,8.87,6.151a2.96,2.96,0,0,1-.9,5.3,3.055,3.055,0,0,1-.808.109Zm-5.585-4.117,4.7,2.712a1.8,1.8,0,0,0,1.929-3.037l-6.628-4.6a5.4,5.4,0,0,1,.584,2.835,5.262,5.262,0,0,1-.584,2.09ZM83.6,186.5a1.779,1.779,0,0,1,1.016.316l11.694,8.1a1.792,1.792,0,0,0,2.056-2.936l-11.722-8.323a1.792,1.792,0,0,1,2.139-2.873l13.052,9.257a1.946,1.946,0,0,0,2.316-3.126L90.121,176.81A1.791,1.791,0,1,1,92.2,173.9l.974.69,13.291,9.588a1.72,1.72,0,0,1,.171.14l.165.108a1.932,1.932,0,0,0,2.636-.35,1.9,1.9,0,0,0,.334-1.715,1.844,1.844,0,0,0-.609-.934L90.455,166.176c-7.38,3.772-12.642,1.7-15.14.1a3.361,3.361,0,0,1,.279-5.8l3.581-1.9c-3.642.494-8.614.862-14.387,1.051l-10.629,17.3,1.671,1.272,2.545-2.233a5.438,5.438,0,0,1,7.674.5v0a5.512,5.512,0,0,1,1.1,1.9,5.265,5.265,0,0,1,2.662-.517,5.4,5.4,0,0,1,3.737,1.841l.138.158a5.392,5.392,0,0,1,1.342,3.3h.117a5.4,5.4,0,0,1,3.363,1.468l.019-.016.317.362.034.037.368.419-.016.016a5.386,5.386,0,0,1,1.029,2.949h.071a5.463,5.463,0,0,1,1.518.32,1.788,1.788,0,0,1,1.752-2.195Z" transform="translate(-43.968 -60.228)" fill="#fca311"/>
      <path id="Path_23" data-name="Path 23" d="M399.791,91.146l-12.247,9.486,11.329,18.427a1.156,1.156,0,0,1,.209.139,1.187,1.187,0,0,1,.332.741l1.7,2.76,5.237-2.947Z" transform="translate(-323.924 -5.203)" fill="#fca311"/>
      <path id="Path_24" data-name="Path 24" d="M396.955,118.279l-2.061-3.354-.013-.135a.606.606,0,0,0-.164-.383l-.224-.133-.069-.117-11.6-18.869,13.39-10.367,6.858,29.923Zm-.934-3.745,1.338,2.176,4.372-2.453-6.252-27.294-11.113,8.606,10.979,17.857a1.078,1.078,0,0,1,.2.154,1.74,1.74,0,0,1,.48.954Z" transform="translate(-319.975 0)" fill="#fca311"/>
      <path id="Path_25" data-name="Path 25" d="M227.532,158.779a10.764,10.764,0,0,1-7.463.271l-6.43-2.087a3.5,3.5,0,0,0-2.679.234l-2.179,1.158c-.023.012-.043.026-.068.036l-8.636,4.588a.367.367,0,0,0-.208.318.332.332,0,0,0,.155.307c2.54,1.621,6.891,2.8,13.12-.771a1.21,1.21,0,0,1,1.364.111l19.631,16a4.661,4.661,0,0,1,.736.76l4.854-4.858-10.345-16.826Z" transform="translate(-167.057 -60.078)" fill="#fca311"/>
      <path id="Path_26" data-name="Path 26" d="M231.876,177.632l-.406-.515a4.015,4.015,0,0,0-.642-.666l-19.636-16a.63.63,0,0,0-.7-.057c-6.483,3.724-11.042,2.467-13.725.757a.912.912,0,0,1-.424-.829.946.946,0,0,1,.52-.806l10.88-5.778a4.088,4.088,0,0,1,3.133-.276l6.427,2.084a10.181,10.181,0,0,0,7.06-.255l2.316-.948,10.846,17.636Zm-21.083-18.487a1.8,1.8,0,0,1,1.134.4l19.632,16a4.445,4.445,0,0,1,.394.359l4.088-4.088L226.2,155.8l-1.392.57a11.348,11.348,0,0,1-7.869.285l-6.424-2.086a2.92,2.92,0,0,0-2.229.2l-10.55,5.606c2.445,1.42,6.466,2.286,12.174-.993A1.789,1.789,0,0,1,210.793,159.145Z" transform="translate(-164.108 -57.132)" fill="#fca311"/>
    </g>
    <g transform="matrix(1, 0, 0, 1, 199, 891)" filter="url(#Ellipse_19)">
      <g id="Ellipse_19-2" data-name="Ellipse 19" transform="translate(9 6)" fill="none" stroke="#fca311" stroke-width="1">
        <circle cx="67" cy="67" r="67" stroke="none"/>
        <circle cx="67" cy="67" r="66.5" fill="none"/>
      </g>
    </g>
  </g>
</svg>
