<svg xmlns="http://www.w3.org/2000/svg" xmlns:xlink="http://www.w3.org/1999/xlink" width="152" height="152" viewBox="0 0 152 152">
  <defs>
    <filter id="Ellipse_19" x="0" y="0" width="152" height="152" filterUnits="userSpaceOnUse">
      <feOffset dy="3" input="SourceAlpha"/>
      <feGaussianBlur stdDeviation="3" result="blur"/>
      <feFlood flood-color="#fca311"/>
      <feComposite operator="in" in2="blur"/>
      <feComposite in="SourceGraphic"/>
    </filter>
  </defs>
  <g id="Group_63" data-name="Group 63" transform="translate(-886 -1129)">
    <g id="Group_34" data-name="Group 34" transform="translate(687 238)">
      <g transform="matrix(1, 0, 0, 1, 199, 891)" filter="url(#Ellipse_19)">
        <g id="Ellipse_19-2" data-name="Ellipse 19" transform="translate(9 6)" fill="none" stroke="#fca311" stroke-width="1">
          <circle cx="67" cy="67" r="67" stroke="none"/>
          <circle cx="67" cy="67" r="66.5" fill="none"/>
        </g>
      </g>
    </g>
    <path id="building" d="M93.38,56.727H89.523V8.8a1.956,1.956,0,0,0-1.956-1.956H72.9V1.956A1.956,1.956,0,0,0,70.94,0H57.37a1.956,1.956,0,0,0-1.956,1.956v4.89H53.824A1.956,1.956,0,0,0,51.868,8.8V56.727H48.011A1.992,1.992,0,0,0,46,58.589a1.956,1.956,0,0,0,1.954,2.05H61.893a.978.978,0,0,0,.978-.978V48.413h-.8a1.993,1.993,0,0,1-2.009-1.861A1.956,1.956,0,0,1,62.016,44.5H79.321a1.993,1.993,0,0,1,2.009,1.861,1.956,1.956,0,0,1-1.954,2.051H78.52V59.661a.978.978,0,0,0,.978.978H93.435a1.956,1.956,0,0,0,1.954-2.05A1.992,1.992,0,0,0,93.38,56.727ZM65.928,40.467h-2.2a1.956,1.956,0,1,1,0-3.912h2.2a1.956,1.956,0,1,1,0,3.912Zm0-7.335h-2.2a1.956,1.956,0,1,1,0-3.912h2.2a1.956,1.956,0,1,1,0,3.912Zm0-7.335h-2.2a1.956,1.956,0,1,1,0-3.912h2.2a1.956,1.956,0,1,1,0,3.912Zm0-7.335h-2.2a1.956,1.956,0,1,1,0-3.912h2.2a1.956,1.956,0,1,1,0,3.912ZM77.542,40.467h-2.2a1.956,1.956,0,1,1,0-3.912h2.2a1.956,1.956,0,0,1,0,3.912Zm0-7.335h-2.2a1.956,1.956,0,1,1,0-3.912h2.2a1.956,1.956,0,0,1,0,3.912Zm0-7.335h-2.2a1.956,1.956,0,1,1,0-3.912h2.2a1.956,1.956,0,0,1,0,3.912Zm0-7.335h-2.2a1.956,1.956,0,1,1,0-3.912h2.2a1.956,1.956,0,0,1,0,3.912Zm-10.758,41.2V49.391a.978.978,0,0,1,.978-.978H73.63a.978.978,0,0,1,.978.978V59.661a.978.978,0,0,1-.978.978H67.762A.978.978,0,0,1,66.784,59.661Z" transform="translate(891 1172)" fill="#fca311"/>
  </g>
</svg>
